<svg viewBox="0 0 24 24" width="24" height="24">
  <path
    d="M 1.4925204,-6.7889638e-6 C 0.99514995,0.49735654 0.49737082,0.99512855 3.7253363e-7,1.4924919 2.2837358,3.7733339 4.5621747,6.0593988 6.8362244,8.3498448 8.4198813,6.0044314 11.722552,5.0060266 14.32874,6.1290788 14.856353,5.6026992 15.383967,5.0763196 15.91158,4.54994 13.083475,2.9720272 9.3575288,3.3243092 6.83602,5.339918 M 22.506908,7.4946998e-5 C 20.22399,2.2735607 17.960811,4.5686575 15.649449,6.8112471 c 2.358116,1.596712 3.335284,4.9204639 2.21712,7.5394889 0.527613,0.527605 1.055226,1.055211 1.583248,1.583225 1.574666,-2.82929 1.230144,-6.57623 -0.78999,-9.097621 C 20.439654,5.0565395 22.219888,3.2763302 23.999755,1.4964969 23.501159,0.99790757 23.002153,0.49890952 22.503557,3.2015488e-4 M 4.5508541,8.065935 C 2.9733275,10.894408 3.3219364,14.64192 5.3408435,17.163515 3.5610175,18.943316 1.7807827,20.723525 8.9948099e-4,22.503367 0.49826993,23.001956 0.99604906,23.500954 1.4934195,23.999543 3.7460949,21.694998 6.028498,19.419837 8.3083918,17.142182 5.980927,15.540157 5.0192897,12.245789 6.1309146,9.6460546 5.6045275,9.118449 5.0781404,8.5908433 4.5513446,8.062829 m 12.6127344,7.586569 c -1.597144,2.366256 -4.941459,3.349539 -7.5580693,2.195836 -0.5276132,0.527606 -1.0552264,1.055211 -1.5832483,1.582817 2.8362786,1.593443 6.6053816,1.25996 9.1411126,-0.767909 1.779827,1.7798 3.560061,3.56001 5.339928,5.339851 C 23.002399,23.501404 23.501404,23.002406 24,22.503816 21.733838,20.205401 19.435268,17.939517 17.163793,15.646496 m -0.946108,-3.647059 c 0.110346,2.656828 -2.772523,4.866437 -5.314711,4.084755 C 8.4173474,15.481389 6.9861303,12.366432 8.2162741,10.101896 9.3103256,7.809611 12.617165,7.0065552 14.583678,8.6629344 c 1.011497,0.7871174 1.650273,2.0491206 1.633926,3.3360536 z" />
</svg>
