<?xml version="1.0" encoding="utf-8"?><svg xmlns="http://www.w3.org/2000/svg" xmlns:xlink="http://www.w3.org/1999/xlink"><symbol class="aaicon aaicon-tabler aaicon-tabler-arrow-left" stroke-width="2" stroke="currentColor" fill="none" stroke-linecap="round" stroke-linejoin="round" viewBox="0 0 24 24" id="arrow-left" xmlns="http://www.w3.org/2000/svg"><path d="M0 0h24v24H0z" stroke="none"/><path d="M5 12h14M5 12l6 6M5 12l6-6"/></symbol><symbol viewBox="0 0 1105.04 782.74" id="error" xmlns="http://www.w3.org/2000/svg"><defs><linearGradient id="aba" x1="403.57" y1="833.5" x2="403.57" y2="218.16" gradientUnits="userSpaceOnUse"><stop offset="0" stop-color="gray" stop-opacity=".25"/><stop offset=".54" stop-color="gray" stop-opacity=".12"/><stop offset="1" stop-color="gray" stop-opacity=".1"/></linearGradient><linearGradient id="abb" x1="940.67" y1="825.72" x2="940.67" y2="263.72" xlink:href="#aba"/></defs><ellipse cx="367.38" cy="766.65" rx="97.44" ry="15.65" fill="#4285f4" opacity=".1"/><ellipse cx="897.05" cy="767.09" rx="121.59" ry="15.65" fill="#4285f4" opacity=".1"/><path d="M13.84 338.2h101.49v138.33H21.27c-.25 1.42-.49 2.85-.75 4.28h94.81v111.56c-.17-.05-.32-.11-.48-.17a183.88 183.88 0 0 1-8-3.38l-1.7-.77q-4-1.89-8-4c-.93-.49-1.86-1-2.78-1.52a166.42 166.42 0 0 1-39.88-31.16c-.34-.33-.66-.68-1-1-1.62-1.76-3.21-3.54-4.75-5.36l-1.7-2c-1.82-2.23-3.58-4.52-5.29-6.84-.25-.34-.49-.68-.75-1a148.88 148.88 0 0 1-17.2-31.1c-.14-.33-.26-.69-.39-1q-2.06-5.3-3.65-10.7c-.46-1.51-.9-3-1.28-4.57-.14-.46-.26-.91-.37-1.36-5.68-22.17-6.35-45.2-6.35-68.07v-8c0-9.25.11-18.56.27-27.86 0-2.41.1-4.81.15-7.23q.21-9.21.6-18.42c.06-1.71.14-3.41.23-5.11q0-1.47.15-2.94c.24-3.56.44-7.09.68-10.61ZM115.33 184.18H59.66a422 422 0 0 1 29.61-40.76c8.27-10.16 17-20.06 26.06-29.6ZM115.33 188.46v145.46H14.16c0-.42.07-.85.1-1.27.09-1.15.18-2.3.28-3.44.11-1.34.23-2.69.36-4s.27-2.91.42-4.36.29-2.92.46-4.37.32-2.9.5-4.34.34-2.9.53-4.34c.15-1.2.31-2.39.47-3.59.23-1.69.47-3.39.73-5.07 0-.25.07-.51.11-.75a345.9 345.9 0 0 1 7.45-36.52 270.08 270.08 0 0 1 12.55-37A277.75 277.75 0 0 1 57 188.51ZM139.56 338.19v138.34h216.77V338.19Zm0 142.61v118.8c1.24.26 2.47.51 3.69.72 1.66.32 3.31.61 5 .86.32.05.65.1 1 .13.66.11 1.34.2 2 .29 1.67.23 3.33.42 5 .57.79.08 1.59.15 2.39.21l1.93.15c1.05.08 2.09.14 3.12.17.64 0 1.28.06 1.94.08H172.76c.86 0 1.72 0 2.57-.08h.06c.59 0 1.19 0 1.79-.08a4.19 4.19 0 0 0 .5 0c.5 0 1 0 1.48-.07h.35l3.35-.26c1.1-.1 2.21-.23 3.33-.35l2.28-.27a199.45 199.45 0 0 0 27.45-5.84c20.22-5.64 40-13.53 60.21-19.31 26.13-7.45 55-11.11 80.25-2V480.8Zm216.77-296.62V.01a278.67 278.67 0 0 0-70.43 8.26c-54.89 13.79-104.14 43.7-146.34 81.9v94h10.88v4.27h-10.88v145.48h216.77V188.45H195.11v-4.27Zm278.43-62.21c-13.58-.48-27.08-4.78-39.29-11.42-23.35-12.7-42-32.31-62.84-48.86-43.3-34.47-97-55.27-152.09-60.43v182.92h309.45l.77-.81Zm28.19-5 29.89 32.8v-41.4c-10.01 1.24-18.78 4.19-29.85 8.56Zm29.89 512.13V480.8h-63.69c-.17-.63-.34-1.27-.54-1.91.19.64.35 1.28.53 1.91H380.58v107.25c2.36 1.75 4.69 3.59 7 5.46 2.49 2 4.95 4.11 7.42 6.18l2.49 2.06c1.19 1 2.39 2 3.6 2.94q3.6 2.92 7.27 5.76c1.21 1 2.45 1.9 3.68 2.84a501.22 501.22 0 0 0 61.63 40.31q7.23 4 14.59 7.81c3.27 1.67 6.56 3.33 9.86 4.94q7.44 3.63 15 7a550.84 550.84 0 0 0 146 42.53q16.79 2.48 33.71 3.9v-90.69h1ZM380.58 188.45v145.47h312.3V188.45Zm0 149.74v138.34h312.3V338.19Zm336.54-230v46.18l38.15-41.86q-18.96-3.06-38.15-4.37Zm0 230.05v138.29h303.75V338.19Zm302.64 301.84 1.07-159.28H717.12v240.57a544.73 544.73 0 0 0 58.7-.7h.34q14-.88 27.87-2.56h.21a513.24 513.24 0 0 0 143.2-38.21m132-318.93c-1.14-2.69-2.33-5.36-3.54-8-2.26-5-4.65-9.86-7.11-14.72h-23.7v138.28h59.92c-.03-39.16-9.94-79.16-25.54-115.61Zm-34.35 119.88v137c16.88-16.18 31.14-34.69 41.41-55.85 12.35-25.48 18-53.07 18.46-81.17Zm0-182.92v36h21.48a390 390 0 0 0-21.45-36.05Zm-206-162.6c-1.58-.6-3.16-1.21-4.75-1.8a433.62 433.62 0 0 0-51.31-15.42l-58.38 64.07-1.12 1.19.75.82h207.78a444.41 444.41 0 0 0-92.94-48.91Zm99.06 53.17H721.38l-4.26 3.9v141.52H1020.91v-68.55a432.8 432.8 0 0 0-82.73-76.92Z" fill="#4285f4" opacity=".1"/><path d="M115.33 261.83v72.09H14.16c0-.42.07-.85.1-1.27.09-1.15.18-2.3.28-3.44.11-1.34.23-2.69.36-4s.27-2.91.42-4.36.29-2.92.46-4.37.32-2.9.5-4.34.34-2.9.53-4.34c.15-1.2.31-2.39.47-3.59.23-1.69.47-3.39.73-5.07 0-.25.07-.51.11-.75a345.9 345.9 0 0 1 7.45-36.52ZM13.84 338.2h101.49v138.33H21.27c-.25 1.42-.49 2.85-.75 4.28h94.81v111.56c-.17-.05-.32-.11-.48-.17a183.88 183.88 0 0 1-8-3.38l-1.7-.77q-4-1.89-8-4c-.93-.49-1.86-1-2.78-1.52a166.42 166.42 0 0 1-39.88-31.16c-.34-.33-.66-.68-1-1-1.62-1.76-3.21-3.54-4.75-5.36l-1.7-2c-1.82-2.23-3.58-4.52-5.29-6.84-.25-.34-.49-.68-.75-1a148.88 148.88 0 0 1-17.2-31.1c-.14-.33-.26-.69-.39-1q-2.06-5.3-3.65-10.7c-.46-1.51-.9-3-1.28-4.57-.14-.46-.26-.91-.37-1.36-5.68-22.17-6.35-45.2-6.35-68.07v-8c0-9.25.11-18.56.27-27.86 0-2.41.1-4.81.15-7.23q.21-9.21.6-18.42c.06-1.71.14-3.41.23-5.11q0-1.47.15-2.94c.24-3.56.44-7.09.68-10.61ZM215.87 209.28v124.64h-76.31V209.28h10.88v-42.2h44.66v42.2h20.77zM139.57 338.19h76.3v138.33h-76.3zM139.56 480.81h76.31v115a199.11 199.11 0 0 1-27.45 5.83l-2.28.28c-1.12.13-2.23.24-3.33.35s-2.24.19-3.35.26h-.35c-.48 0-1 .06-1.47.07h-.51c-.6 0-1.2.06-1.8.08-.85.05-1.7.06-2.57.07h-7.08l-1.93-.07c-1 0-2.08-.11-3.12-.18l-1.92-.14-2.39-.22c-1.68-.15-3.35-.34-5-.57l-2-.28-1-.14c-1.67-.26-3.32-.54-5-.86-1.23-.21-2.45-.47-3.69-.72ZM629.96 194.56h62.92v139.35h-62.92zM692.89 338.19v138.34H380.58v-59.67h166.35v35.2h83.03V338.19h62.93zM693.88 629.13h-1v90.75q-16.9-1.43-33.7-3.89a550.87 550.87 0 0 1-146.06-42.62q-20.13-9.06-39.44-19.78a503.26 503.26 0 0 1-61.64-40.31q-7.36-5.64-14.53-11.54c-3.31-2.73-6.6-5.53-9.93-8.25-2.31-1.87-4.64-3.71-7-5.47V480.81h248.55c-.17-.64-.34-1.28-.52-1.91.19.63.37 1.27.54 1.91h63.73v148.26c.34.01.67.04 1 .06ZM856.98 184.18h-41v-12.74h18.38v-37.95q2.39.87 4.76 1.79v36.16h17.86ZM955.76 333.92H754.48l.07.05-.09-.05h-37.34V194.57h10.58v103h48.35v-61h39.94v-48.11h41v48.15h39.94v61h58.83ZM717.12 338.19v138.34h238.64V338.19Zm303.42 301.18.33-109.5h-65.11v-49H717.12v240.5a544.73 544.73 0 0 0 58.7-.7h.34q14-.88 27.87-2.56h.21a513.24 513.24 0 0 0 143.2-38.21M1049.33 480.81H1105c-.49 28.09-6.13 55.68-18.47 81.16-10.27 21.17-24.54 39.68-41.4 55.85v-88h4.2ZM1105.03 476.53h-55.7V360.92h30.14c15.6 36.45 25.51 76.45 25.56 115.61Z" fill="#4285f4" opacity=".1"/><path fill="#4285f4" opacity=".1" d="M659.18 233.3h33.71v43.69h-33.71zM659.18 323.86h33.71v10.06h-33.71zM659.18 338.19h33.71v29.35h-33.71zM659.18 414.42h33.71v43.69h-33.71zM659.18 504.98h33.71v43.69h-33.71zM692.88 629.07c.34 0 .67 0 1 .06h-1v10.15h-33.7v-43.74h33.7ZM692.88 686.08v33.75q-16.9-1.43-33.7-3.89v-29.86ZM380.58 473.32h144.47v3.21H380.58zM380.58 480.8h144.47v12.3H380.58zM380.58 533.42h144.47v19.78H380.58zM525.04 593.52v19.78h-113q-7.36-5.62-14.54-11.54c-3.31-2.73-6.59-5.53-9.93-8.24ZM525.04 653.61v19.76h-11.93q-20.11-9.07-39.43-19.79ZM775.83 351.6h28.44v28.44h-28.44zM160.05 219.09h28.44v28.44h-28.44zM160.05 285.15h28.44v28.44h-28.44zM160.05 351.21h28.44v28.44h-28.44zM160.05 417.26h28.44v28.44h-28.44zM160.05 483.32h28.44v28.44h-28.44zM160.05 549.38h28.44v28.44h-28.44zM884.4 351.6h28.44v28.44H884.4zM775.83 421.75h28.44v28.44h-28.44zM884.4 421.75h28.44v28.44H884.4zM775.83 491.89h28.44v28.44h-28.44zM884.4 491.89h28.44v28.44H884.4zM775.83 562.04h28.44v28.44h-28.44zM884.4 562.04h28.44v28.44H884.4zM775.83 632.19h28.44v28.44h-28.44zM884.4 632.19h28.44v28.44H884.4zM775.83 720.67v-18.34h28.43v15.73l-28.43 2.61zM18 298.37v16.27h97.33v-16.27Zm9.7 15.25h-7.94v-14.25h8Zm9.69 0h-8v-14.25h8Zm9.67 0h-8v-14.25h8Zm9.69 0h-7.99v-14.25h8Zm9.68 0h-8v-14.25h8Zm9.69 0h-8v-14.25h8Zm9.69 0h-8v-14.25h8Zm9.68 0h-8v-14.25h8Zm9.68 0h-8v-14.25h8Zm9.68 0h-8v-14.25h8ZM18 345.71v16.27h97.33v-16.27Zm9.7 15.24h-7.94v-14.21h8Zm9.69 0h-8v-14.21h8Zm9.67 0h-8v-14.21h8Zm9.69 0h-7.99v-14.21h8Zm9.68 0h-8v-14.21h8Zm9.69 0h-8v-14.21h8Zm9.69 0h-8v-14.21h8Zm9.68 0h-8v-14.21h8Zm9.68 0h-8v-14.21h8Zm9.68 0h-8v-14.21h8ZM18 393.07v16.3h97.33v-16.3Zm9.7 15.24h-7.94v-14.22h8Zm9.69 0h-8v-14.22h8Zm9.67 0h-8v-14.22h8Zm9.69 0h-7.99v-14.22h8Zm9.68 0h-8v-14.22h8Zm9.69 0h-8v-14.22h8Zm9.69 0h-8v-14.22h8Zm9.68 0h-8v-14.22h8Zm9.68 0h-8v-14.22h8Zm9.68 0h-8v-14.22h8ZM18 440.43v16.25h97.33v-16.25Zm9.7 15.24h-7.94v-14.23h8Zm9.69 0h-8v-14.23h8Zm9.67 0h-8v-14.23h8Zm9.69 0h-7.99v-14.23h8Zm9.68 0h-8v-14.23h8Zm9.69 0h-8v-14.23h8Zm9.69 0h-8v-14.23h8Zm9.68 0h-8v-14.23h8Zm9.68 0h-8v-14.23h8Zm9.68 0h-8v-14.23h8ZM18.42 487.78c.39 1.53.83 3.06 1.29 4.57v-3.55h8v14.22h-4.28c.13.33.26.69.39 1h91.51v-16.24Zm19 15.24h-8V488.8h8Zm9.67 0h-8V488.8h8Zm9.69 0h-8.02V488.8h8Zm9.68 0h-8V488.8h8Zm9.69 0h-8V488.8h8Zm9.69 0h-8V488.8h8Zm9.68 0h-8V488.8h8Zm9.68 0h-8V488.8h8Zm9.68 0h-8V488.8h8ZM41.02 535.14c.25.32.49.68.75 1h5.29v6.83c.57.68 1.13 1.36 1.71 2v-8.87h8v14.27h-3.24c.32.33.63.68 1 1h60.83v-16.23Zm25.41 15.23h-8v-14.21h8Zm9.69 0h-8v-14.21h8Zm9.69 0h-8v-14.21h8Zm9.68 0h-8v-14.21h8Zm9.68 0h-8v-14.21h8Zm9.68 0h-8v-14.21h8ZM94.41 582.49c.91.52 1.84 1 2.78 1.52v-.5h8v4.5l1.7.79v-5.29h8v8.65a2.5 2.5 0 0 0 .48.18v-9.85ZM754.48 333.92h.06Zm-61.6 295.14h1Zm-64.27-150.17c.19.64.35 1.28.53 1.91-.16-.63-.33-1.27-.53-1.91Zm125.87-145h.06Zm-604-149.74v4.27h44.67v-4.27Zm542.4 444.91h1Zm-64.27-150.17c.19.64.35 1.28.53 1.91-.16-.63-.33-1.27-.53-1.91Zm125.87-145h.06Zm-61.6 295.14h1Zm-64.27-150.14c.19.64.35 1.28.53 1.91-.16-.63-.33-1.27-.53-1.91Z"/><path d="M508.84 438.3s-3.94-.55-3.94-6.29-2.82-16.46-2.82-16.46c0-.05-2.44-18.67-5.81-21.63s-7.7-20.34-7.7-20.34-.74-9.43-2.25-11.46-3.55-7-6.56-14.09-15.56-12-15.56-12-22.69-13.16-29.12-17.45a9.86 9.86 0 0 1-1.63-1.23c-1.12-1.47-6-1.5-6-1.5-.51-3.22-1-6.92-1.16-10.27 0-.36 0-.72-.05-1.08a34.6 34.6 0 0 0 15.21-18.82c.12-.38.22-.78.33-1.16a3.25 3.25 0 0 0 1.95-1.76c.58-1.29.59-2.8 1.31-4 .84-1.42 2.44-2.18 3.7-3.25 3.18-2.7 4-7.25 3.85-11.39-.1-3.35-.64-6.73-.43-10.06l.06-.84c.06-.5.13-1 .22-1.48.49-2.48 1.56-4.82 2.16-7.28s.66-5.23-.74-7.35c-2.05-3.11-6.32-3.73-10.07-4.05-4.25-.36-8.05.11-10.77-3.42a38.39 38.39 0 0 0-4.28-5.17c-.56-.52-6-3.84-6-4.06a24.31 24.31 0 0 0-16.95-1.3c-2.82.82-5.48 2.16-8.34 2.83-6.17 1.46-13.27-.12-18.51 3.41-2.92 2-4.67 5.18-6.31 8.28q-2 3.83-4.06 7.65c-2.21 4.19-4.46 8.45-5.39 13.09a20.78 20.78 0 0 0-.36 3.06V259.06c0 .35 0 .69.06 1s.05.41.08.62.08.68.14 1 .18.88.3 1.32c.05.19.12.37.18.55.1.34.22.67.35 1 .07.17.14.35.22.52.15.35.33.69.51 1 .08.14.14.27.22.4a13.27 13.27 0 0 0 .92 1.34c2.14 2.67 5.29 4.37 7.62 6.87V275.8A34.23 34.23 0 0 0 389 303.75c0 .38.05.77.07 1.15a57.22 57.22 0 0 1-.11 8.91 4.2 4.2 0 0 0-3.32-1.48 4.79 4.79 0 0 0-1.28.11l-.09-.07v.09c-2.2.54-4.91 2.83-7.5 9.34 0 0-7.88 8.88-13.88 8.51s-21.19 9.24-21.19 9.24-14.82 9.62-18 19.42a136.86 136.86 0 0 1-6.38 16.28L299 413l-3.38 29.95s1.87 13.32 1.5 15.35 7.69 20.34 7.69 20.34 26.63 46.79 37.51 49.19l.78-.55a6.38 6.38 0 0 0 1.47.55l2.24-1.58a24.41 24.41 0 0 1-.17 5.28c-1.5 4.62.56 34.77 3.18 40.68s1.69 83.4 1.69 83.4l-.37 6.84s0 .22.09.6l-.09 1.62.27.14a19.26 19.26 0 0 1-.27 6.51c-.94 3-1.32 11.48-1.32 11.48s-7.49 47.88-3.94 57.5 6.57 20.16 6.57 20.16 3.75 12 .18 14.05S338.91 780 341 785c1.9 4.62 9.11 17 10.18 18.81l-.09.95-1.47 15.93a20 20 0 0 0 1.69 6.08c1.61 3.47 4.74 7.07 10.69 6.68 1-.07 2.16-.19 3.28-.34 10.89-1.46 24.3-6.32 24.3-6.32a9.91 9.91 0 0 1-1.9-1.57 5.49 5.49 0 0 1-1.67-4c.16-2.9-5.27-16.72-6.62-20.12-.21-.49-.32-.77-.32-.77s12.38-12.94 10.32-24.41c0 0-13.7-8-9.19-12.39s12.57-17 12.57-17 .37-47.15 0-54.19a58.3 58.3 0 0 1 .69-14.63c.15-.73.33-1.44.52-2.14a130.55 130.55 0 0 0 18.84 1.43c2.3 0 4.64 0 7-.14q0 1 .09 2.16c.52 11.68 1.49 32.16 2.28 39.77 1.12 10.91 7.31 40.31 7.31 40.31s-11.81 7.58 2.06 26.26c0 0 0 6.77-.92 7.75a84.78 84.78 0 0 0-2.37 9.76c-.58 3.52-.82 7.08.12 8.93 2.25 4.42 15.75 4.06 15.75 4.06l.33-.06a19.35 19.35 0 0 1 14.29 4.31c5.13 4.12 24.6 2.31 35.14 1 4.13-.52 6.89-1 6.89-1a4 4 0 0 0 .14-1.44c-.11-2.59-2.14-8.27-15.9-13.34 0 0-12.94-8.7-12.76-16.28h-1.77c1.09-.06 1.79 0 1.79 0s-5.07-18.5-3-20-4.13-22-4.13-22-3.55-34.4-3.74-36.81a21 21 0 0 1 .93-6.1l-.93-18.86s-.18-6.27 0-8.31a41.5 41.5 0 0 0-.43-5.29c-.09-.7-.18-1.43-.28-2.15 4.85-1.23 8-2.37 8-2.37l-.56-65.65c4.12-8 4.88-25.55 4.86-38 0-8-.36-13.92-.36-13.92l5.63-9.19s1.3-11-.76-13.41c-.91-1.09-.5-2.22.25-3.15A10.46 10.46 0 0 1 479 523s-.06-.09-.13-.22a9.94 9.94 0 0 1 1.25-.89s-2-3.1-.21-4.41c1.68 1.14 3.18 2 4.32 2.7-.08.73-.16 1.15-.16 1.15l.48-1c1.1.62 1.77 1 1.77 1s8.82-17.57 8.63-20.16 6-13.5 6-13.5.75-5.73 4.13-8.13 2.62-19.79 2.62-19.79.94-9.06 3.19-12.76-2.05-8.69-2.05-8.69Zm-168.76-7.71.17 4.19-1.72-2.77Z" transform="translate(-47.24 -58.63)" fill="url(#aba)"/><path d="m439.56 455.11-2.16 9.2s-17.3-8.83-20.42-20.05 5.22-15.48 5.22-15.48l16.12 6.83Z" fill="#fff"/><path d="m439.56 455.11-2.16 9.2s-17.3-8.83-20.42-20.05 5.22-15.48 5.22-15.48l16.12 6.83Z" opacity=".1"/><path d="M342.47 768.22s-16 5.88-27 6.62c-5.84.39-8.91-3.19-10.49-6.64a20.1 20.1 0 0 1-1.65-6.05l1.43-15.85.76-8.44 23.37-6.07 3.31 10.12.31.77c1.33 3.38 6.66 17.13 6.5 20a5.46 5.46 0 0 0 1.64 3.95 9.51 9.51 0 0 0 1.82 1.59ZM451.76 760.16a4 4 0 0 1-.14 1.43s-34.22 5.71-41.22 0a18.54 18.54 0 0 0-14.4-4.22s-13.24.36-15.45-4c-.92-1.83-.68-5.38-.11-8.88a84.59 84.59 0 0 1 2.32-9.71l.53-.42 3.15-2.53 36.88-1.09h.28c-.18 7.54 12.52 16.19 12.52 16.19 13.49 5 15.48 10.65 15.64 13.23Z" fill="#fff"/><path d="M451.76 760.16a4.08 4.08 0 0 1-.15 1.43s-34.21 5.71-41.21 0a18.54 18.54 0 0 0-14.39-4.22s-13.25.36-15.45-4c-.92-1.84-.69-5.38-.12-8.88 5.1.51 13.15 1.78 16.31 4.81 4.78 4.61 12.88 9.21 17.85 9.57 3.89.25 27.16.99 37.16 1.29ZM342.47 768.22s-16 5.88-27 6.62c-5.84.39-8.91-3.19-10.48-6.65 4.07 1.37 9.72 2.81 12.69 1.49 3.52-1.56 16-2.57 23-3a9.85 9.85 0 0 0 1.79 1.54Z" opacity=".1"/><path d="M366.21 294.37c-13.2-5.13-30.18-22.08-25.94-30a17.72 17.72 0 0 0 1.65-6.36 58.07 58.07 0 0 0 .12-9 123.25 123.25 0 0 0-1.77-14.64s41.21.93 38.81 7c-.7 1.78-.81 4.87-.62 8.33s.69 7.37 1.21 10.68c.72 4.54 1.44 8 1.44 8s-2.52 3.53-4 3.72 8.04 29.58-10.9 22.27Z" fill="#cf6f80"/><path d="m332.48 742.68-.31.34c-12.32-14.9-27.22 3.67-27.22 3.67l-.22-.39.76-8.44 23.37-6.07 3.31 10.12ZM423.61 731.79s-9-.19-13.8 4.05-28 .92-27 0a3.29 3.29 0 0 0 .52-1.52l3.15-2.53 36.88-1.09c.14.67.25 1.09.25 1.09Z" opacity=".1"/><path d="M347.81 614.78a27.82 27.82 0 0 0-1.52 5.13 58.71 58.71 0 0 0-.69 14.56c.37 7 0 53.91 0 53.91s-7.91 12.51-12.32 16.92 9 12.33 9 12.33c2 11.4-10.12 24.28-10.12 24.28-12.32-14.9-27.22 3.68-27.22 3.68s-8.1-14-10.12-19 7.91-8.46 11.4-10.49-.17-14-.17-14-2.95-10.49-6.45-20.06 3.86-57.21 3.86-57.21.38-8.46 1.29-11.41a19.08 19.08 0 0 0 .27-6.48c-.06-.73-.13-1.34-.18-1.75s-.09-.6-.09-.6l.14-.24 5-9.32s40.32 13.88 37.92 19.75ZM423.61 730.69s-9-.19-13.8 4-28 .92-27 0 .92-7.73.92-7.73c-13.61-18.58-2-26.12-2-26.12s-6.08-29.25-7.18-40.1c-.77-7.58-1.72-27.95-2.23-39.58-.22-5-.35-8.44-.35-8.44l11.12-2.24 1.43-.29 26.82-5.38s.74 5 1.24 9.09a42.48 42.48 0 0 1 .42 5.27c-.18 2 0 8.26 0 8.26l.91 18.77a21.32 21.32 0 0 0-.91 6.07c.18 2.39 3.67 36.61 3.67 36.61s6.07 20.42 4 21.89 2.94 19.92 2.94 19.92Z" fill="#4285f4"/><path d="M379.08 241.37c-.7 1.78-.81 4.87-.62 8.33a34.25 34.25 0 0 1-36.42-.68 123.25 123.25 0 0 0-1.77-14.65s41.21.91 38.81 7Z" opacity=".1"/><path d="M395.01 219.27a33.87 33.87 0 0 1-1.68 10.61 34.22 34.22 0 0 1-66.74-9.79v-.82a34.22 34.22 0 1 1 68.43 0Z" fill="#cf6f80"/><path d="M366.21 294.37c-13.2-5.13-30.18-22.08-25.94-30a17.72 17.72 0 0 0 1.65-6.36l18.07 14.85 11.18 9.17 8.5-21.64c.72 4.54 1.44 8 1.44 8s-2.52 3.53-4 3.72 8.04 29.57-10.9 22.26Z" opacity=".1"/><path fill="#4285f4" d="m412.94 360-15.09 253.5-19.68 1.29-50.96-146.99 8.36-174.51 1.76-36.87 22.66 18.61 11.19 9.17 8.75-22.27 16.27 14.18L412.94 360z"/><path d="M347.81 614.78a27.82 27.82 0 0 0-1.52 5.13 145 145 0 0 1-41.26-12.89l-.27-.14.09-1.61.05-.84 5-9.32s40.31 13.8 37.91 19.67ZM383.32 619.95a101.24 101.24 0 0 1-11.06 1.26c-.22-5-.35-8.44-.35-8.44l11.12-2.24ZM412.52 613.95c-7.11 1.85-18.09 3.93-27.92 2.63l-.14-6.34 26.82-5.38s.74 4.95 1.24 9.09Z" opacity=".1"/><path d="M384.42 617.74c-41 7-78.55-13.07-78.55-13.07l.36-6.8s.93-77.09-1.65-83-4.59-35.88-3.13-40.48-5.33-73.58-5.33-73.58l-1.1-28-40.26-16.31 18-37.52a135.39 135.39 0 0 0 6.26-16.2c3.13-9.74 17.66-19.31 17.66-19.31s14.9-9.56 20.79-9.2 13.61-8.46 13.61-8.46c5.7-14.53 10.86-7.95 10.86-7.95 0 .69 0 0-.28 2.15-2 15.95 32.34 66.35 32.83 67.24l3.27 79.66 3.31 100.81Z" opacity=".1"/><path d="M383.32 617.74c-41 7-78.56-13.07-78.56-13.07l.37-6.8s.93-77.09-1.66-83-4.59-35.88-3.12-40.48-5.33-73.58-5.33-73.58l-1.11-28-40.28-16.37 18-37.52a137.51 137.51 0 0 0 6.26-16.2c3.12-9.74 17.66-19.31 17.66-19.31s14.9-9.56 20.78-9.2 13.61-8.46 13.61-8.46c5.71-14.53 12-7.95 12-7.95 0 .69-.6 1-.28 2.15 4.4 15.47 31.24 66.35 31.73 67.24l3.31 79.66 3.31 100.81Z" fill="#fff"/><path d="M372.27 329.46c-4.41-1.84-27.77-28.51-27.77-28.51v-6.07c-.85-2-5.9-.78-10 .62l1.76-36.87 2 1.66c4.38 15.46 33.5 68.28 34.01 69.17Z" opacity=".1"/><path d="M373.38 327.25c-4.42-1.84-27.78-28.51-27.78-28.51v-6.07c-.85-2-5.9-.78-10 .62l1.77-36.87 2 1.66c4.39 15.46 33.52 68.29 34.01 69.17Z" fill="#fff"/><path d="M305.87 460.26c.55 0 28.51-2.94 28.51-2.94s16.93 33.29 15.82 41.39-3.12 15.27-9.93 14-36.65 1-36.65 1Z" opacity=".1"/><path d="M304.76 458.05c.55 0 28.51-2.94 28.51-2.94s16.92 33.3 15.82 41.39-3.13 15.27-9.93 14-36.65 1-36.65 1Z" fill="#fff"/><path d="M325.83 442.42s25.66 13.79 26.21 18-13.06-1.84-16-2.57a36.61 36.61 0 0 0-5.89-.92l-19.61.53Z" fill="#cf6f80"/><circle cx="365.11" cy="328.48" r="2.7" opacity=".1"/><circle cx="365.11" cy="327.38" r="2.7" fill="#3f3d56"/><circle cx="370.08" cy="445.36" r="2.7" opacity=".1"/><circle cx="370.08" cy="444.25" r="2.7" fill="#3f3d56"/><circle cx="367.8" cy="386.92" r="2.7" opacity=".1"/><circle cx="367.8" cy="385.82" r="2.7" fill="#3f3d56"/><path d="M430.04 456.37s1.84 2.76 0 4.05.18 4.41.18 4.41-4.59 2.69-2.57 5.11.74 13.35.74 13.35l-5.52 9.14s.33 5.89.35 13.85c0 12.42-.73 29.88-4.77 37.84l.56 65.31s-19.33 7.06-35.51 4.91l-2.4-104.8s3.5-59.43 4.79-70.83a118.68 118.68 0 0 0 .92-17.85s-.55-17.84-2.4-26.12c0 0-2-35.87-2.2-45.8-.09-4.75.16-18.61.44-31.79.31-14.41.66-28 .66-28l-3.65-28.88s3.65-.37 4.75 1.1a10.53 10.53 0 0 0 1.6 1.23c6.3 4.26 28.56 17.36 28.56 17.36s12.32 4.9 15.27 11.92 5 12 6.43 14 2.21 11.4 2.21 11.4 4.24 17.3 7.55 20.23 5.73 21.57 5.73 21.57l-29.25 23s-2.57 38.26-3.12 39.74 10.65 34.55 10.65 34.55Z" fill="#fff"/><path d="M431.15 456.37s1.83 2.76 0 4.05.17 4.41.17 4.41-4.56 2.72-2.56 5.14.74 13.35.74 13.35l-5.52 9.14s.33 5.89.36 13.85c0 12.42-.73 29.88-4.77 37.84l.55 65.31s-19.36 7.06-35.52 4.91l-2.39-104.8s3.5-59.43 4.79-70.83a117.58 117.58 0 0 0 .91-17.85s-.55-17.84-2.39-26.12c0 0-2-35.87-2.21-45.8-.09-4.75.17-18.61.44-31.79.31-14.41.66-28 .66-28l-4.82-29.27s4.82 0 5.93 1.49a9.49 9.49 0 0 0 1.6 1.23c6.3 4.26 28.57 17.36 28.57 17.36s12.31 4.9 15.26 11.92 5 12 6.44 14 2.2 11.4 2.2 11.4 4.24 17.3 7.55 20.23 5.7 21.53 5.7 21.53l-29.25 23s-2.57 38.26-3.13 39.74 10.69 34.56 10.69 34.56Z" fill="#fff"/><path d="m396.12 297.67 2.64 7.7-13.9 14c.31-14.4.66-28 .66-28l-4.82-29.27s4.82 0 5.93 1.49a9.12 9.12 0 0 0 1.6 1.22l11.82 34.1Z" opacity=".1"/><path d="m395.01 295.46 2.65 7.7-13.9 14c.31-14.41.66-28 .66-28l-4.83-29.27s4.83 0 5.93 1.49a10 10 0 0 0 1.6 1.23l11.83 34.09Z" fill="#fff"/><path d="M395.01 219.27a33.87 33.87 0 0 1-1.68 10.61 1.43 1.43 0 0 1-1.08-.27c-.26-9-4.69-17.45-10.14-24.64a25.89 25.89 0 0 0-5.5-5.7 10.76 10.76 0 0 0-7.46-2.11c-3 .41-5.65 2.45-8.68 2.71-4 .33-7.58-2.44-11.55-2.58a11.35 11.35 0 0 0-8.49 3.94 23.29 23.29 0 0 0-4.55 8.44 49.38 49.38 0 0 0-2.54 14.56c-.05 2.8-.32 6.31-2.92 7.33a14.94 14.94 0 0 0-3.77-11.41l-.06-.06v-.82a34.22 34.22 0 1 1 68.43 0Z" opacity=".1"/><path d="M374.97 164.94a23.56 23.56 0 0 0-16.62-1.3c-2.77.82-5.38 2.15-8.19 2.82-6 1.45-13-.12-18.15 3.39-2.86 2-4.58 5.16-6.18 8.23l-4 7.62c-2.18 4.17-4.38 8.41-5.29 13s-.36 9.73 2.55 13.42c2.12 2.69 5.25 4.38 7.55 6.91a15 15 0 0 1 3.76 11.4c2.61-1 2.86-4.52 2.92-7.32a49.38 49.38 0 0 1 2.54-14.56 23.21 23.21 0 0 1 4.55-8.44 11.37 11.37 0 0 1 8.49-3.94c4 .14 7.59 2.9 11.55 2.57 3-.25 5.66-2.3 8.68-2.7a10.72 10.72 0 0 1 7.46 2.11 25.62 25.62 0 0 1 5.49 5.7c5.46 7.19 9.89 15.62 10.15 24.64 1.13.83 2.76-.25 3.32-1.53s.58-2.78 1.29-4c.82-1.41 2.39-2.16 3.62-3.22 3.12-2.69 3.9-7.22 3.78-11.33s-.92-8.28-.14-12.32c.47-2.48 1.53-4.8 2.11-7.25s.65-5.2-.72-7.31c-2-3.1-6.21-3.71-9.88-4-4.17-.36-7.9.1-10.56-3.41a38.3 38.3 0 0 0-4.2-5.14c-.53-.52-5.88-3.82-5.88-4.04Z" fill="#512e4e"/><path d="m266.28 375.82-10.45-19.32-3.31 29.81s1.84 13.24 1.47 15.27 7.54 20.23 7.54 20.23 26.13 46.54 36.8 48.94l36.05-25.76-9.56-12.14s-3.31-1.29-4.14 0c0 0-17.75-30.54-19.59-32.75s-1.48-6.62-1.48-6.62-2.76-2.94-1.84-5.7-5.33-12.33-5.33-12.33l5.7-5.33Z" opacity=".1"/><path d="m256.38 354.3-2.76 2.2-3.31 29.81s1.84 13.24 1.47 15.27 7.55 20.23 7.55 20.23 26.12 46.54 36.79 48.94l36.06-25.76-9.57-12.14s-3.31-1.29-4.14 0c0 0-17.75-30.54-19.59-32.75s-1.47-6.62-1.47-6.62-2.76-2.94-1.84-5.7-5.34-12.33-5.34-12.33l5.7-5.33Z" fill="#fff"/><path d="M427.65 471.08c2 2.43.74 13.34.74 13.34l-5.52 9.14s.33 5.9.35 13.85l-9.28 2.9a5.51 5.51 0 0 1-7.15-5.43l1.6-51.61 21.65 8.28c-1.84 1.28.18 4.42.18 4.42s-4.59 2.68-2.57 5.11Z" opacity=".1"/><path d="M428.76 469.97c2 2.43.74 13.35.74 13.35l-5.52 9.14s.33 5.89.36 13.85l-9.45 2.95a5.4 5.4 0 0 1-7-5.32l1.61-51.77 21.66 8.28c-1.85 1.28.17 4.41.17 4.41s-4.57 2.69-2.57 5.11Z" fill="#fff"/><path d="M435.93 445.37s-1.47 9.39-5.15 9.94-5.33 15.19-9 14.67-1.24-13.61-1.11-16.15-4-13.06-.91-15.45 12.87 0 12.87 0Z" fill="#cf6f80"/><path d="m443.76 373.06 6.94-14s2.76 10.67 2.76 16.37 3.86 6.26 3.86 6.26 4.23 5 2 8.64-3.13 12.7-3.13 12.7.73 17.29-2.58 19.68-4 8.1-4 8.1-6.08 10.85-5.89 13.43-8.46 20.05-8.46 20.05 4.23-21.71-20.42-31.09c0 0-.19-7.37 1.65-9.39s4.71-2.94 2.91-13.15-.52-22.41-.52-24.86 5.52-17.73 5.52-17.73Z" opacity=".1"/><path d="m446.76 357.06 6.06 2s2.77 10.67 2.77 16.37 3.86 6.26 3.86 6.26 4.23 5 2 8.64-3.12 12.7-3.12 12.7.73 17.29-2.58 19.68-4.05 8.1-4.05 8.1-6.07 10.85-5.88 13.43-8.47 20.05-8.47 20.05 4.24-21.71-20.42-31.09c0 0-.18-7.37 1.66-9.39s4.71-2.94 2.91-13.15-.52-22.41-.52-24.86 5.52-17.73 5.52-17.73Z" fill="#fff"/><path d="M312.91 719.93s9.66-6.07 16-1.66-16 1.66-16 1.66ZM387.97 701.16s8.55-1.1 15.73 6.63-15.73-6.63-15.73-6.63Z" opacity=".1"/><g opacity=".1"><path d="M400.48 217.55c-1.23 1.06-2.81 1.82-3.63 3.23-.7 1.21-.72 2.7-1.28 4s-2.19 2.36-3.32 1.54c-.26-9-4.7-17.45-10.15-24.65a25.62 25.62 0 0 0-5.49-5.7 10.75 10.75 0 0 0-7.47-2.11c-3 .41-5.64 2.45-8.67 2.7-4 .34-7.59-2.43-11.56-2.57a11.32 11.32 0 0 0-8.48 3.95 23.16 23.16 0 0 0-4.55 8.43 49.44 49.44 0 0 0-2.54 14.56c-.06 2.79-.32 6.27-2.9 7.31a13.7 13.7 0 0 1 0 2.22c2.6-1 2.86-4.52 2.92-7.32a49.38 49.38 0 0 1 2.54-14.56 23.21 23.21 0 0 1 4.55-8.44 11.35 11.35 0 0 1 8.48-3.94c4 .14 7.6 2.9 11.56 2.57 3-.25 5.66-2.3 8.67-2.7a10.75 10.75 0 0 1 7.47 2.11 25.62 25.62 0 0 1 5.49 5.7c5.45 7.19 9.89 15.62 10.15 24.64 1.13.83 2.76-.25 3.32-1.53s.58-2.78 1.28-4c.82-1.41 2.4-2.16 3.63-3.22 3.12-2.69 3.9-7.22 3.78-11.33v-.38c-.19 3.56-1.14 7.19-3.8 9.49ZM326.66 216.84c-2.3-2.53-5.44-4.22-7.55-6.9a14.64 14.64 0 0 1-2.91-8.19 15.4 15.4 0 0 0 2.91 10.39c2.11 2.69 5.25 4.38 7.55 6.91a15 15 0 0 1 3.77 8.92 15 15 0 0 0-3.77-11.13ZM406.23 186.65c-.59 2.45-1.64 4.78-2.12 7.25a23.1 23.1 0 0 0-.31 5 19.42 19.42 0 0 1 .31-2.84c.48-2.48 1.53-4.8 2.12-7.25a12.3 12.3 0 0 0 .33-4.14 13.9 13.9 0 0 1-.33 1.98Z"/></g><ellipse cx="132.73" cy="744.94" rx="97.44" ry="15.65" fill="#4285f4" opacity=".1"/><path fill="#535461" d="M129.6 445.14h6.27v141.17h-6.27z"/><path d="m175.27 585.88-.39 6.36-.56 9-.23 3.74-.55 9-.24 3.74-.56 9-6.32 102.07a17.3 17.3 0 0 1-17.26 16.22H116.3a17.29 17.29 0 0 1-17.25-16.22l-6.29-102.14-.56-9-.23-3.74-.56-9-.23-3.74-.56-9-.4-6.36a9 9 0 0 1 9-9.51h67.21a8.94 8.94 0 0 1 8.84 9.58Z" fill="#3f3d56"/><path fill="#9d9cb5" d="m174.88 592.24-.56 8.97H91.14l-.56-8.97h84.3zM174.09 604.95l-.55 8.98H91.93l-.56-8.98h82.72zM173.3 617.68l-.55 8.97H92.72l-.56-8.97h81.14z"/><path d="M81.01 498.05c36.51 26.42 51.75 67.74 51.75 67.74s-44-1.51-80.52-27.93S.51 470.13.51 470.13s43.98 1.5 80.5 27.92Z" fill="#4285f4"/><path d="M.48 470.13s45.68 25.35 60.33 46.34 71.95 49.32 71.95 49.32" fill="none" stroke="#535461" stroke-miterlimit="10" stroke-width="2"/><path d="M104.58 444.83c19.87 14.37 28.18 36.86 28.18 36.86s-23.95-.82-43.83-15.19-28.17-36.87-28.17-36.87 23.94.82 43.82 15.2Z" fill="#4285f4"/><path d="M60.76 429.63s24.86 13.8 32.83 25.22 39.17 26.84 39.17 26.84" fill="none" stroke="#535461" stroke-miterlimit="10" stroke-width="2"/><path d="M161.61 480.55c-22.83 25.09-27.66 57.88-27.66 57.88s32.19-7.9 55-33 27.66-57.88 27.66-57.88-32.17 7.91-55 33Z" fill="#4285f4"/><path d="M216.63 447.56s-29.74 25.72-37.3 43.44-45.38 47.43-45.38 47.43" fill="none" stroke="#535461" stroke-miterlimit="10" stroke-width="2"/><path d="M1046.91 530.35s-16.51-82.14-10.19-92.36c0 0 .23-9.5-.15-21.61v-1.39a30.76 30.76 0 0 0 3.47 2 28.08 28.08 0 0 0 18.9 2.44l-5-5.57c-1.2-1.33-2.45-2.77-2.71-4.53s.46-3.33 1.08-4.9c4.75-12 5-27.09-4.15-36.25-7.73-7.7-9.61-17.64-18-24.67-6.13-5.15-9.5-12.7-12.68-20-2.69-6.17-5.4-12.39-6.94-18.93-1.2-5.11-1.68-10.4-3.33-15.39s-4.74-9.84-9.57-12.07c-1.72-.79-3.63-1.24-5.2-2.29-2.06-1.39-3.3-3.65-4.79-5.63-7.57-10-32.92-4.11-44.92-.05a25.27 25.27 0 0 0-8.88 4.92l.11-.18c.09-.15.2-.3.3-.45a15.78 15.78 0 0 0-3.36 3.75c-1.75 2.77-2.48 6-3.94 9-1.76 3.55-11.55 13.46-7.34 17.45a3.55 3.55 0 0 0 1 .64 8.65 8.65 0 0 0 5 .5l-.18.43a29.23 29.23 0 0 0-2.17 11.09c0 16.43 13.55 29.75 30.28 29.75a30.57 30.57 0 0 0 9.27-1.43c.07.38.13.76.2 1.14 0 .15.05.3.07.45l-.53.74a1 1 0 0 0-.09-.13l-15.7 21.94c-2.4 1.69-16.22 11.69-17 19.19-.82 8.21-1.64 17.82-1.64 17.82l-.11 2.06a6.18 6.18 0 0 1-5 1.35c-4.9-.8-4.9 18-4.9 18s-3.26 3-5.5.4-8.16 6.21-8.16 6.21l-37.1 1.6-.85.05-2-6.19a2.61 2.61 0 0 0-3.27-1.67 3 3 0 0 0-.45.19l-.14.08-.26.18-.13.12a2 2 0 0 0-.2.21l-.12.14-.06.06a2.52 2.52 0 0 0-.36 2.24l1.72 5.31c-7.16 1.44-14.48 5.5-8.51 16.68l-30.26-5.59 9.79 8.22 50.54 10.43c-.67 1.2-.23 2.94 1.86 5.39 9 10.57 25.4 13.44 32 14.18a56.81 56.81 0 0 0 6.49 11l-.57 10.53s-16.71 80.26-19.77 84.33a47.57 47.57 0 0 0 4.23-5.57c-4.85 16.49-11.63 39.06-13.41 42.44-2.86 5.4-5.51 27.25-2.25 28.65 1 .43 3.86.22 7.94-.09v1.81l-.18 68.59s.82 42.07-1.43 46.08-2.85 12.42-2.85 12.42-9 16.59-16.13 23.26a1.07 1.07 0 0 1-.16.14l-.22-1.56s-8.57 10.82-27.53 10.21c0 0-11.41 7.42 5.51 7.82s38.53-.6 38.53-.6 15.09-23 27.73-20v17.43h3.87V804.6a15.87 15.87 0 0 0 6.89-10.43 12.68 12.68 0 0 0-4.52-11.73 7.5 7.5 0 0 1-2.47-5.48l-.14.12c0-.35-.09-.71-.13-1.08-1.11-9-2.5-27.57 2.41-41.31 6.73-18.84 8.77-45.08 3.87-60.7a139.56 139.56 0 0 1-3.89-15.21c-.12-.65-.23-1.27-.33-1.85a78.85 78.85 0 0 1 9.93 2c11.35 3.13 36.18 3.71 57.38 3.54.05.58.11 1.19.18 1.8a65.5 65.5 0 0 0 2.36 12.52c2.66 8 3.88 43.27 3.88 43.27s3.43 29 1.56 40.8c-1 6.56-2 13.15-2.57 19.77v.13s-5.62 16-9.73 24.69c-.1.22-.21.44-.31.65a13 13 0 0 0-3.21.71s-5.51 11-11 12.82-3.67 7.81 8.76 5.61 31.2-4 31.2-4l.81-11.22 3.82-4.78-1 11.19 4.07-.8-.54-13.61 6.25-7.82s7.55-6.72-3.67-19.94v.29c-.12-.19-.23-.39-.36-.58v-.06c-1.86-2.88-3.34-8.25-.63-17.78 4.9-17.22 7.75-32.85 7.75-32.85s10.94-41.87-2.21-61.68h.58a33.32 33.32 0 0 1-2.83-8.8q-.1-.54-.18-1.11c9.73-.56 19.28-2.32 27.07-6.12-.03-.04-4.72-99.4-8.6-115.22Zm-123.53-69.3v.2l-2 .1Zm-6.86.95a2.21 2.21 0 0 0-.9.43 8.88 8.88 0 0 0-1.57 4.11l-3.12-.7s-2.19-.47-5.34-1l-1.49-1.5c4.1-.34 8.36-.84 12.42-1.34Z" transform="translate(-47.24 -58.63)" fill="url(#abb)"/><path fill="#1d2366" d="m972.51 743.53-1.19 14.17 3.99-.8-.6-15.37-2.2 2z"/><path d="M881.48 676.25c-4.81 13.7-3.45 32.19-2.37 41.17.4 3.32.77 5.34.77 5.34s-7.19 16.38-7.79 17-21.16 13.17-21.16 13.17l-14.37 8.39s-14.58-6.39-7.59-8.59a10.61 10.61 0 0 0 3.77-2.57c7-6.65 15.79-23.18 15.79-23.18s.6-8.39 2.8-12.38 1.4-45.92 1.4-45.92l.17-68.35v-8.91l27.35.2a61.89 61.89 0 0 0 1.18 9 137.59 137.59 0 0 0 3.81 15.16c4.82 15.59 2.82 41.7-3.76 60.47Z" fill="#ffb0b1"/><path d="M879.88 722.76s-7.19 16.38-7.79 17-21.16 13.17-21.16 13.17l-14.37 8.39s-14.58-6.39-7.59-8.59a10.61 10.61 0 0 0 3.77-2.57l.62 4.37 4.79-.2 41-36.89c.36 3.3.73 5.32.73 5.32Z" opacity=".1"/><path d="m879.38 718.37-41.23 37.14-4.79.2-1-7s-8.38 10.78-27 10.18c0 0-11.18 7.39 5.39 7.79s37.73-.6 37.73-.6 14.78-23 27.15-20v17.37h3.8v-17.53a15.79 15.79 0 0 0 6.74-10.4 12.74 12.74 0 0 0-4.41-11.68 7.53 7.53 0 0 1-2.38-5.47Z" fill="#1d2366"/><path d="M976.31 697.61c-2.66 9.5-1.21 14.85.61 17.72v.06a32.75 32.75 0 0 1 4.78 11.67l.16.9-18.76 27.35-10.18 4s-16.37-5.59-13.38-7.19c.75-.39 1.92-2.47 3.26-5.34 4-8.65 9.52-24.61 9.52-24.61v-.13c.58-6.59 1.5-13.16 2.52-19.7 1.83-11.77-1.53-40.66-1.53-40.66s-1.2-35.13-3.8-43.12a65.93 65.93 0 0 1-2.33-12.44c-.54-5-.66-9.12-.66-9.12s10.78-15 30.54 1.2a21.74 21.74 0 0 1 4.13 4.48c13.65 19.42 2.66 62.2 2.66 62.2s-2.75 15.56-7.54 32.73Z" fill="#ffb0b1"/><path d="m981.89 727.96-18.76 27.35-10.18 4s-16.37-5.59-13.38-7.19c.75-.39 1.92-2.47 3.26-5.34 6.93-.06 10.52 6.54 10.52 6.54l8.78-1.4s11.58-22.76 14.18-24.15.4-10.39.4-10.39v-2.29c.07.08.13.17.21.25v.06a32.75 32.75 0 0 1 4.78 11.67Z" opacity=".1"/><path d="M953.95 753.91s-5-9.18-14.58-5.79c0 0-5.39 11-10.78 12.78s-3.59 7.78 8.59 5.59 30.54-4 30.54-4l.8-11.19 12.38-15.77s7.38-6.69-3.6-19.86v2.29s2.2 9-.4 10.39-14.14 24.16-14.14 24.16Z" fill="#1d2366"/><path d="M880.28 591.6a61.89 61.89 0 0 0 1.18 9c-11.26-1.65-21.71-.83-28.56-.29v-8.91ZM982.3 605.17s-16 .78-35.08.94c-.54-5-.66-9.12-.66-9.12s10.78-15 30.54 1.2a21.74 21.74 0 0 1 4.13 4.48 24.4 24.4 0 0 0 1.07 2.5Z" opacity=".1"/><path d="M982.3 603.37s-70.08 3.39-91.44-2.6-42.53-.8-45.72-2.19-.6-23.16 2.2-28.55 18.16-59.9 18.16-59.9l14.78-77.06 15.57-4.29 1.1-.31 27.13-7.48 19.88-5.49s39.53 154.33 36.14 165.71a29.14 29.14 0 0 0-.58 13.39 33.42 33.42 0 0 0 2.78 8.77Z" fill="#1d2366"/><path d="M828.76 380.37s-14 15-3.4 23.36 17.57.8 17.57.8Z" fill="#c7daf5"/><path d="M828.76 380.37s-14 15-3.4 23.36 17.57.8 17.57.8Z" opacity=".1"/><path d="M941.87 281.75s-1.64 1.56-4.11 3.86c-3.52 3.29-8.73 8.1-13.35 12.13-6.4 5.57-11.68 9.66-9.79 6.17s1.53-9.57.59-15.26c-.07-.38-.13-.76-.2-1.13a104.8 104.8 0 0 0-3.09-12.36s10.34-13.36 16.06-18.63c2.13-2 3.62-2.82 3.71-1.43.1 1.87 1.5 6 3.24 10.38.05.14.1.27.16.41 1.16 3 2.47 6.08 3.62 8.74 1.76 4.08 3.16 7.12 3.16 7.12Z" fill="#ffb0b1"/><path d="M935.09 265.89a29.68 29.68 0 0 1-19.88 22.76 104.07 104.07 0 0 0-3.29-13.49s19.47-25.15 19.77-20.06c.07 1.93 1.59 6.21 3.4 10.79ZM913.27 295.37l2.52-3.55s1.67 10.18 7.81 5.69 6.44 33.79 6.44 33.79l-6.59 98.53-47.62-2.85 1.35-47.61 5.39-24 13.33-34.89 7.93-11.53Z" opacity=".1"/><path d="m930.04 331.91-6 89.09-.63 9.44-26.55-1.59-1-.06-20-1.2 1.35-47.62 5.39-24 13.33-34.89 7.93-11.53 9.44-13.63 2.52-3.54s1.67 10.18 7.81 5.69l.13-.09c6-3.8 6.28 33.93 6.28 33.93Z" fill="#1d2366"/><path d="M883.27 347.63s-2.39 5-7.19 4.19-4.79 18-4.79 18-3.19 3-5.39.4-8 6.19-8 6.19l-36.34 1.6s16.17 7.39 13 29.75c0 0 54.9-3.4 56.7-8.59s-7.99-51.54-7.99-51.54Z" fill="#fff"/><path d="M883.27 347.63s-2.39 5-7.19 4.19-4.79 18-4.79 18-3.19 3-5.39.4-8 6.19-8 6.19l-36.34 1.6s16.17 7.39 13 29.75c0 0 54.9-3.4 56.7-8.59s-7.99-51.54-7.99-51.54Z" opacity=".03"/><path fill="#fff" d="m777.66 389.76 9.58 8.18 78.86 16.57-9.78-9.98-78.66-14.77zM913.42 298.52c-1.31 2-5.06 12.24-8.19 21.18-2.61 7.45-4.79 14-4.79 14s-5.09 33.14-7.69 39.13-1.19 29.35-1.19 29.35l-9.69 57.69s-4.39 29.75-11.17 47.52c-6.69 17.49-14.14 25.69-14.37 25.95 3-4.06 19.35-84 19.35-84l5.4-100.82s.79-9.58 1.59-17.77 17-19.37 17-19.37l15.62-22.21c1.57 2.1.52 5.76-1.87 9.35Z"/><path d="M872.69 428.09s-23-1-34.14-14.38 25.75-5.34 25.75-5.34l9.59 2.2Z" fill="#ffb0b1"/><path d="M980.1 581.22a29.14 29.14 0 0 0-.58 13.39c-25.09 1.78-51.93-5-51.93-5-5 4.6-18.17 11.38-18.17 11.38l-7.18-89c-4.59-12-6.39-74.87-6.39-74.87s.41-3.29 1-8.22c0-.12 0-.25.05-.37 1.79-13.77 5.34-39.62 7.08-43.11 2.4-4.8-7.38-17.57-7.38-17.57l4.45-37.95.54-4.58c9.38-4.19 16.57-17.57 16.57-17.57l5.52-9.67c6-3.85 6.31 33.88 6.31 33.88l-6 89.09 19.88-5.49s39.62 154.28 36.23 165.66Z" opacity=".1"/><path d="M1005.85 587.37c-27.35 13.58-77.06 1-77.06 1-5 4.6-18.17 11.38-18.17 11.38l-7.19-89c-4.58-12-6.38-74.87-6.38-74.87s5.78-46.91 8.18-51.7c.7-1.4.36-3.48-.47-5.72a72.38 72.38 0 0 1-4.38-33.49l1.92-16.31.53-4.57c9.39-4.2 16.58-17.58 16.58-17.58l5-8.76 9.2-16.14 4.36-7.64.74.67 5.65 5.12 6 5c7.83 6.6 21.36 18.22 28.34 25.33 6.14 6.26 8.08 30.61 8.64 48.94.37 12.07.15 21.53.15 21.53-6.19 10.19 10 92 10 92 3.77 15.81 8.36 114.81 8.36 114.81Z" fill="#fff"/><path d="M953.35 306.31s-18.77 35.73-16.59 49.31 8.38 28.95 5.39 32.54a11.05 11.05 0 0 1-8.79 4.39c-3 .2-11 5.79-11 6.39s-7.39.6-14 3.4-16.37 4.39-16.37 4.39-19-.6-20.77 1.2-3.59 12.57.2 21.16 8 15 11.18 16.17 23.36-5.59 39.73-7.19 34.14-14.57 34.14-14.57 19.57-7 23-18.77-4.19-76.46-4.19-76.46-5.76-30.15-21.93-21.96Z" opacity=".03"/><path d="M950.95 303.31s-18.77 35.74-16.57 49.31 8.38 28.95 5.38 32.55a11 11 0 0 1-8.78 4.39c-3 .2-11 5.79-11 6.39s-7.39.6-14 3.39-16.37 4.39-16.37 4.39-19-.6-20.76 1.2-3.6 12.58.2 21.16 8 15 11.18 16.17 23.36-5.59 39.73-7.18 34.14-14.58 34.14-14.58 19.56-7 22.95-18.76-4.19-76.47-4.19-76.47-5.74-30.14-21.91-21.96Z" opacity=".03"/><path d="M952.76 304.51s-18.77 35.74-16.57 49.31 8.38 28.95 5.39 32.54a11 11 0 0 1-8.79 4.4c-3 .2-11 5.79-11 6.38s-7.38.6-14 3.4-16.37 4.39-16.37 4.39-19-.6-20.77 1.2-3.59 12.58.2 21.16 8 15 11.18 16.17 23.36-5.59 39.73-7.19 34.14-14.57 34.14-14.57 19.57-7 23-18.77-4.14-76.46-4.14-76.46-5.84-30.1-22-21.96Z" fill="#fff"/><path d="M952.35 400.37s-15-3-9.78 2 5.19 9.38 11.58 9.18-1.8-11.18-1.8-11.18ZM977.7 507.95s-6.78 4.59 6.19 15.17-6.19-15.17-6.19-15.17ZM964.76 545.68c0 .6-2.4 22 6.58 27.35s-6.58-27.35-6.58-27.35Z" opacity=".1"/><path d="M822.18 377.96c-7.24.25-22.88 2.46-14.77 17.59 7.17 13.39 19.22 4.44 26-2.35a25.55 25.55 0 0 0-11.23-15.24ZM834.15 392.37ZM833.5 393.08l.3-.31Z" fill="#ffb0b1"/><path d="M950.36 285.37c-7.68 5.25-14.12 9.68-15.38 10.6-3.44 2.55-10 17.52-14.23 25.16-3.37 6.15-14.32 7.73-18.45 8.12l.53-4.57c9.39-4.2 16.58-17.58 16.58-17.58l18.56-32.54 6.39 5.81 6 5Z" opacity=".1"/><path d="M950.36 284.77c-7.68 5.25-14.12 9.68-15.38 10.61-3.44 2.54-10 17.51-14.23 25.15-3.37 6.15-14.32 7.73-18.45 8.12l.53-4.57c9.39-4.2 16.58-17.58 16.58-17.58l18.56-32.54 6.39 5.79s2.4 1.98 6 5.02Z" fill="#dce7ff"/><path d="M935.58 259.29a29.61 29.61 0 0 1-5.22 16.81 29.66 29.66 0 1 1 5.22-16.81Z" fill="#ffb0b1"/><path d="M987.34 359.04a26.36 26.36 0 0 1-9.57-10.28c-1.67-3.3-2.78-7.11-5.63-9.45-2.57-2.1-6-2.61-9.2-3.55-10.52-3.11-19.34-12.71-19.67-23.67-.16-5.16 1.45-10.31.72-15.42a17.08 17.08 0 0 0-3.34-7.95 27.37 27.37 0 0 0-2.89-3.11c-1.4-1.32-2.87-2.6-4.15-4a15.53 15.53 0 0 1-2.1-2.85 13.71 13.71 0 0 1-1.15-2.65c-2-6.12-.18-13.38-2.38-19.57l-.12-.34c-.83-2.2-2.52-4.4-4.87-4.57s-4.36 1.78-6.6 2.65c-4.69 1.82-9.75-1.28-13.66-4.44s-8.32-6.77-13.29-6.07c-3.29.47-5.89 2.71-8.92 3.87a12.5 12.5 0 0 1-2.11.61 29.65 29.65 0 0 1 57.17 11.05 29.35 29.35 0 0 1-.65 6.19c.05.14.1.27.16.41 1.16 3 2.47 6.08 3.62 8.74l5.65 5.12 6 5c7.83 6.6 21.36 18.22 28.34 25.33 6.14 6.28 8.06 30.62 8.64 48.95Z" opacity=".1"/><path d="M880.17 229.37c1.43-2.91 2.14-6.17 3.85-8.93 2.51-4 6.89-6.56 11.39-8.11 11.75-4.05 36.58-9.93 44 0 1.46 2 2.67 4.22 4.69 5.6 1.54 1.05 3.4 1.5 5.09 2.29 4.73 2.22 7.75 7.06 9.36 12s2.09 10.24 3.27 15.33c1.51 6.53 4.16 12.72 6.8 18.87 3.11 7.26 6.41 14.79 12.41 19.92 8.19 7 10 16.91 17.6 24.59 9 9.12 8.71 24.17 4.07 36.12-.61 1.57-1.3 3.21-1.06 4.88s1.48 3.19 2.65 4.52l4.92 5.55c-11.64 2.81-24.81-3.27-30.23-13.94-1.67-3.3-2.78-7.1-5.64-9.45-2.56-2.1-6-2.6-9.19-3.54-10.52-3.12-19.34-12.73-19.67-23.69-.16-5.15 1.45-10.3.72-15.4a17 17 0 0 0-3.35-8c-2.75-3.59-6.9-6-9.14-10-3.79-6.69-.91-15.38-3.64-22.56-.84-2.2-2.52-4.4-4.87-4.57s-4.36 1.78-6.61 2.65c-4.68 1.82-9.74-1.27-13.65-4.44s-8.32-6.77-13.3-6.06c-3.29.46-5.88 2.7-8.91 3.87-2.24.86-6.78 1.63-8.74-.26-4.14-3.81 5.45-13.68 7.18-17.24Z" fill="#591d4b"/><path d="M981.76 344.76c-1.68-3.3-2.78-7.1-5.64-9.44-2.56-2.1-6-2.61-9.2-3.55-10.51-3.11-19.33-12.72-19.67-23.68-.16-5.15 1.45-10.31.73-15.41a17.1 17.1 0 0 0-3.35-7.95c-2.76-3.59-6.91-6-9.14-10-3.79-6.68-.91-15.37-3.65-22.56-.83-2.19-2.52-4.39-4.86-4.57s-4.37 1.79-6.61 2.66c-4.68 1.82-9.75-1.28-13.65-4.44s-8.33-6.77-13.3-6.07c-3.29.47-5.89 2.71-8.91 3.87-2.24.86-6.79 1.64-8.75-.25-4.12-4 5.47-13.85 7.19-17.39 1.43-2.92 2.14-6.17 3.86-8.93.09-.15.19-.3.29-.45a15.88 15.88 0 0 0-3.29 3.74c-1.71 2.76-2.42 6-3.85 8.93-1.73 3.54-11.32 13.42-7.19 17.39 2 1.9 6.5 1.12 8.74.26 3-1.17 5.62-3.41 8.91-3.87 5-.71 9.4 2.9 13.3 6.06s9 6.26 13.66 4.44c2.24-.87 4.2-2.83 6.6-2.65s4 2.37 4.87 4.57c2.73 7.18-.15 15.87 3.64 22.56 2.24 3.93 6.39 6.39 9.14 10a17 17 0 0 1 3.35 8c.73 5.1-.88 10.25-.72 15.4.33 11 9.15 20.57 19.67 23.69 3.17.94 6.63 1.44 9.19 3.54 2.87 2.35 4 6.15 5.64 9.45 5.42 10.67 18.59 16.75 30.23 13.94l-2.32-2.62c-10.09.15-20.3-5.59-24.91-14.67Z" opacity=".1"/><path d="M912.82 299.12c-1.31 2-5.06 12.24-8.19 21.18-2.93-1.14-5.59-8.41-5.59-8.41l15.62-22.22c1.6 2.2.55 5.85-1.84 9.45Z" opacity=".1"/><path d="M913.42 298.52c-1.31 2-5.06 12.24-8.19 21.18-2.93-1.13-5.59-8.41-5.59-8.41l15.62-22.21c1.6 2.19.55 5.85-1.84 9.44Z" fill="#dce7ff"/><path d="m822.6 400.68-8.66-27.31a2.55 2.55 0 0 1 1.66-3.21 2.56 2.56 0 0 1 3.2 1.66l8.66 27.28-.86 5.71Z" fill="#be8b87"/><path d="M814.76 370.97a2.56 2.56 0 0 1 3.21 1.66l8.66 27.28-.65 4.28.63.66.86-5.71-8.71-27.28a2.56 2.56 0 0 0-3.2-1.66 2.56 2.56 0 0 0-1.33 1 3.48 3.48 0 0 1 .53-.23Z" fill="#fff" opacity=".1"/><path fill="#efc8c4" d="m822.6 400.68 4.86-1.54-.71 4.68-.15 1.03-1.42-1.48-2.58-2.69z"/><path d="M825.18 403.37a1 1 0 0 1 .31-.26.44.44 0 0 1 .47 0 1.24 1.24 0 0 1 .17.27.86.86 0 0 0 .62.41l-.15 1Z" fill="#727a9c"/><path d="M813.89 383.07s17.37-.1 13.28 7.29-10.48 8.28-10.48 8.28Z" fill="#ffb0b1"/><path d="M705.86 51.42h-.75c-29.84 0-56.23 15.79-71.41 39.09-15.18-23.3-41.57-39.09-71.41-39.09h-.75a85 85 0 0 0-84.19 84.95c0 27.81 12.18 67.27 35.93 99.74 45.25 61.87 120.42 116 120.42 116s75.17-54.12 120.41-116c23.76-32.47 35.93-71.93 35.93-99.74a85 85 0 0 0-84.18-84.95Zm-10.73 189.45a16.85 16.85 0 0 1-15.67-10.82h-17.84a5.64 5.64 0 0 1-5.31-3.84l-5.48-16.51-17.34 60.59a5.61 5.61 0 0 1-5.38 4.05h-.35a5.54 5.54 0 0 1-5.2-4.64l-17.87-107.48-13.06 63.6a5.57 5.57 0 0 1-5.41 4.23h-25.13a5.59 5.59 0 1 1 0-11.17h20.73l18.5-85.51a5.61 5.61 0 0 1 11 .46l18.25 109.64 15.54-54.21a5.5 5.5 0 0 1 5.23-4h.11a5.58 5.58 0 0 1 5.3 3.84l9.91 29.81h13.58a16.76 16.76 0 1 1 15.92 22Z" fill="#4285f4"/></symbol><symbol fill="none" stroke="currentColor" stroke-width="2" stroke-linecap="round" stroke-linejoin="round" class="acicon acicon-tabler acicons-tabler-outline acicon-tabler-accessible" viewBox="0 0 24 24" id="icon-accessible" xmlns="http://www.w3.org/2000/svg"><path d="M0 0h24v24H0z" stroke="none"/><path d="M3 12a9 9 0 1 0 18 0 9 9 0 1 0-18 0"/><path d="m10 16.5 2-3 2 3m-2-3v-2l3-1m-6 0 3 1"/><circle cx="12" cy="7.5" r=".5" fill="currentColor"/></symbol><symbol fill="none" stroke="currentColor" stroke-width="2" stroke-linecap="round" stroke-linejoin="round" class="adicon adicon-tabler adicons-tabler-outline adicon-tabler-contrast" viewBox="0 0 24 24" id="icon-application" xmlns="http://www.w3.org/2000/svg"><path d="M0 0h24v24H0z" stroke="none"/><path d="M3 12a9 9 0 1 0 18 0 9 9 0 1 0-18 0"/><path d="M12 17a5 5 0 0 0 0-10v10"/></symbol><symbol viewBox="0 0 24 24" id="icon-boinc"><path d="M1.493 0 0 1.492A2291.24 2291.24 0 0 1 6.836 8.35c1.584-2.346 4.887-3.344 7.493-2.22l1.583-1.58c-2.829-1.578-6.554-1.226-9.076.79M22.506 0c-2.282 2.274-4.545 4.569-6.857 6.811 2.359 1.597 3.336 4.92 2.218 7.54l1.583 1.583c1.574-2.83 1.23-6.576-.79-9.098L24 1.496 22.504 0M4.55 8.066c-1.578 2.828-1.23 6.576.79 9.098L0 22.504 1.493 24c2.253-2.305 4.535-4.58 6.815-6.858-2.327-1.602-3.289-4.896-2.177-7.496L4.55 8.063m12.613 7.586c-1.597 2.367-4.941 3.35-7.558 2.196l-1.583 1.583c2.836 1.593 6.605 1.26 9.14-.768l5.34 5.34L24 22.504c-2.266-2.299-4.565-4.564-6.836-6.858M16.218 12c.11 2.657-2.773 4.867-5.315 4.085-2.486-.603-3.917-3.718-2.687-5.982 1.094-2.292 4.401-3.095 6.368-1.44 1.011.788 1.65 2.05 1.634 3.337z"/></symbol><symbol class="aficon aficon-tabler aficon-tabler-box-multiple" stroke-width="2" stroke="currentColor" fill="none" stroke-linecap="round" stroke-linejoin="round" viewBox="0 0 24 24" id="icon-box-multiple" xmlns="http://www.w3.org/2000/svg"><path d="M0 0h24v24H0z" stroke="none"/><path d="M7 5a2 2 0 0 1 2-2h10a2 2 0 0 1 2 2v10a2 2 0 0 1-2 2H9a2 2 0 0 1-2-2z"/><path d="M17 17v2a2 2 0 0 1-2 2H5a2 2 0 0 1-2-2V9a2 2 0 0 1 2-2h2"/></symbol><symbol fill="none" stroke="currentColor" stroke-width="2" stroke-linecap="round" stroke-linejoin="round" class="agicon agicon-tabler agicons-tabler-outline agicon-tabler-check" viewBox="0 0 24 24" id="icon-check" xmlns="http://www.w3.org/2000/svg"><path d="M0 0h24v24H0z" stroke="none"/><path d="m5 12 5 5L20 7"/></symbol><symbol class="ahicon ahicon-tabler ahicon-tabler-chevron-left" stroke-width="2" stroke="currentColor" fill="none" stroke-linecap="round" stroke-linejoin="round" viewBox="0 0 24 24" id="icon-chevron-left" xmlns="http://www.w3.org/2000/svg"><path d="M0 0h24v24H0z" stroke="none"/><path d="m15 6-6 6 6 6"/></symbol><symbol class="aiicon aiicon-tabler aiicon-tabler-chevron-right" stroke-width="2" stroke="currentColor" fill="none" stroke-linecap="round" stroke-linejoin="round" viewBox="0 0 24 24" id="icon-chevron-right" xmlns="http://www.w3.org/2000/svg"><path d="M0 0h24v24H0z" stroke="none"/><path d="m9 6 6 6-6 6"/></symbol><symbol fill="currentColor" class="ajicon ajicon-tabler ajicons-tabler-filled ajicon-tabler-circle-check" viewBox="0 0 24 24" id="icon-circle-check" xmlns="http://www.w3.org/2000/svg"><path d="M0 0h24v24H0z" fill="none"/><path d="M17 3.34a10 10 0 1 1-14.995 8.984L2 12l.005-.324A10 10 0 0 1 17 3.34zm-1.293 5.953a1 1 0 0 0-1.32-.083l-.094.083L11 12.585l-1.293-1.292-.094-.083a1 1 0 0 0-1.403 1.403l.083.094 2 2 .094.083a1 1 0 0 0 1.226 0l.094-.083 4-4 .083-.094a1 1 0 0 0-.083-1.32z"/></symbol><symbol fill="none" stroke="currentColor" stroke-width="2" stroke-linecap="round" stroke-linejoin="round" class="akicon akicon-tabler akicons-tabler-outline akicon-tabler-settings" viewBox="0 0 24 24" id="icon-cog" xmlns="http://www.w3.org/2000/svg"><path d="M0 0h24v24H0z" stroke="none"/><path d="M10.325 4.317c.426-1.756 2.924-1.756 3.35 0a1.724 1.724 0 0 0 2.573 1.066c1.543-.94 3.31.826 2.37 2.37a1.724 1.724 0 0 0 1.065 2.572c1.756.426 1.756 2.924 0 3.35a1.724 1.724 0 0 0-1.066 2.573c.94 1.543-.826 3.31-2.37 2.37a1.724 1.724 0 0 0-2.572 1.065c-.426 1.756-2.924 1.756-3.35 0a1.724 1.724 0 0 0-2.573-1.066c-1.543.94-3.31-.826-2.37-2.37a1.724 1.724 0 0 0-1.065-2.572c-1.756-.426-1.756-2.924 0-3.35a1.724 1.724 0 0 0 1.066-2.573c-.94-1.543.826-3.31 2.37-2.37 1 .608 2.296.07 2.572-1.065z"/><path d="M9 12a3 3 0 1 0 6 0 3 3 0 0 0-6 0"/></symbol><symbol fill="none" stroke="currentColor" stroke-width="2" stroke-linecap="round" stroke-linejoin="round" class="alicon alicon-tabler alicons-tabler-outline alicon-tabler-copyright" viewBox="0 0 24 24" id="icon-copyright" xmlns="http://www.w3.org/2000/svg"><path d="M0 0h24v24H0z" stroke="none"/><path d="M3 12a9 9 0 1 0 18 0 9 9 0 1 0-18 0"/><path d="M14 9.75a3.016 3.016 0 0 0-4.163.173 2.993 2.993 0 0 0 0 4.154A3.016 3.016 0 0 0 14 14.25"/></symbol><symbol class="anicon anicon-tabler anicon-tabler-eye" stroke-width="2" stroke="currentColor" fill="none" stroke-linecap="round" stroke-linejoin="round" viewBox="0 0 24 24" id="icon-eye" xmlns="http://www.w3.org/2000/svg"><path d="M0 0h24v24H0z" stroke="none"/><path d="M10 12a2 2 0 1 0 4 0 2 2 0 0 0-4 0"/><path d="M21 12c-2.4 4-5.4 6-9 6-3.6 0-6.6-2-9-6 2.4-4 5.4-6 9-6 3.6 0 6.6 2 9 6"/></symbol><symbol class="amicon amicon-tabler amicon-tabler-eye-off" stroke-width="2" stroke="currentColor" fill="none" stroke-linecap="round" stroke-linejoin="round" viewBox="0 0 24 24" id="icon-eye-off" xmlns="http://www.w3.org/2000/svg"><path d="M0 0h24v24H0z" stroke="none"/><path d="M10.585 10.587a2 2 0 0 0 2.829 2.828"/><path d="M16.681 16.673A8.717 8.717 0 0 1 12 18c-3.6 0-6.6-2-9-6 1.272-2.12 2.712-3.678 4.32-4.674m2.86-1.146A9.055 9.055 0 0 1 12 6c3.6 0 6.6 2 9 6-.666 1.11-1.379 2.067-2.138 2.87M3 3l18 18"/></symbol><symbol fill="none" stroke="currentColor" stroke-width="2" stroke-linecap="round" stroke-linejoin="round" class="aoicon aoicon-tabler aoicons-tabler-outline aoicon-tabler-device-ipad-check" viewBox="0 0 24 24" id="icon-hit-criterion" xmlns="http://www.w3.org/2000/svg"><path d="M0 0h24v24H0z" stroke="none"/><path d="M11.5 21H6a2 2 0 0 1-2-2V5a2 2 0 0 1 2-2h12a2 2 0 0 1 2 2v8M9 18h2M15 19l2 2 4-4"/></symbol><symbol class="apicon apicon-tabler apicon-tabler-book" stroke-width="2" stroke="currentColor" fill="none" stroke-linecap="round" stroke-linejoin="round" viewBox="0 0 24 24" id="icon-library" xmlns="http://www.w3.org/2000/svg"><path d="M0 0h24v24H0z" stroke="none"/><path d="M3 19a9 9 0 0 1 9 0 9 9 0 0 1 9 0M3 6a9 9 0 0 1 9 0 9 9 0 0 1 9 0M3 6v13M12 6v13M21 6v13"/></symbol><symbol fill="none" stroke="currentColor" stroke-width="2" stroke-linecap="round" stroke-linejoin="round" class="aqicon aqicon-tabler aqicons-tabler-outline aqicon-tabler-droplet-question" viewBox="0 0 24 24" id="icon-ligand" xmlns="http://www.w3.org/2000/svg"><path d="M0 0h24v24H0z" stroke="none"/><path d="m18.064 10.877-4.89-7.26c-.42-.625-1.287-.803-1.936-.397a1.376 1.376 0 0 0-.41.397l-4.893 7.26C4.24 13.715 4.9 17.318 7.502 19.423c2.203 1.782 5.259 2.056 7.723.82M19 22v.01M19 19a2.003 2.003 0 0 0 .914-3.782 1.98 1.98 0 0 0-2.414.483"/></symbol><symbol class="aricon aricon-tabler aricon-tabler-article" stroke-width="2" stroke="currentColor" fill="none" stroke-linecap="round" stroke-linejoin="round" viewBox="0 0 24 24" id="icon-news" xmlns="http://www.w3.org/2000/svg"><path d="M0 0h24v24H0z" stroke="none"/><path d="M3 6a2 2 0 0 1 2-2h14a2 2 0 0 1 2 2v12a2 2 0 0 1-2 2H5a2 2 0 0 1-2-2zM7 8h10M7 12h10M7 16h10"/></symbol><symbol class="asicon asicon-tabler asicon-tabler-bell-ringing" stroke-width="2" stroke="currentColor" fill="none" stroke-linecap="round" stroke-linejoin="round" viewBox="0 0 24 24" id="icon-notifications" xmlns="http://www.w3.org/2000/svg"><path d="M0 0h24v24H0z" stroke="none"/><path d="M10 5a2 2 0 0 1 4 0 7 7 0 0 1 4 6v3a4 4 0 0 0 2 3H4a4 4 0 0 0 2-3v-3a7 7 0 0 1 4-6M9 17v1a3 3 0 0 0 6 0v-1M21 6.727A11.05 11.05 0 0 0 18.206 3M3 6.727A11.05 11.05 0 0 1 5.792 3"/></symbol><symbol fill="none" stroke="currentColor" stroke-width="2" stroke-linecap="round" stroke-linejoin="round" class="aticon aticon-tabler aticons-tabler-outline aticon-tabler-pencil" viewBox="0 0 24 24" id="icon-pencil" xmlns="http://www.w3.org/2000/svg"><path d="M0 0h24v24H0z" stroke="none"/><path d="M4 20h4L18.5 9.5a2.828 2.828 0 1 0-4-4L4 16v4M13.5 6.5l4 4"/></symbol><symbol class="auicon auicon-tabler auicon-tabler-plus" stroke-width="2" stroke="currentColor" fill="none" stroke-linecap="round" stroke-linejoin="round" viewBox="0 0 24 24" id="icon-plus" xmlns="http://www.w3.org/2000/svg"><path d="M0 0h24v24H0z" stroke="none"/><path d="M12 5v14M5 12h14"/></symbol><symbol fill="none" stroke="currentColor" stroke-width="2" stroke-linecap="round" stroke-linejoin="round" class="avicon avicon-tabler avicons-tabler-outline avicon-tabler-device-ipad-search" viewBox="0 0 24 24" id="icon-project-results" xmlns="http://www.w3.org/2000/svg"><path d="M0 0h24v24H0z" stroke="none"/><path d="M11.5 21H6a2 2 0 0 1-2-2V5a2 2 0 0 1 2-2h12a2 2 0 0 1 2 2v6M9 18h2"/><path d="M15 18a3 3 0 1 0 6 0 3 3 0 1 0-6 0M20.2 20.2 22 22"/></symbol><symbol class="awicon awicon-tabler awicon-tabler-folder" stroke-width="2" stroke="currentColor" fill="none" stroke-linecap="round" stroke-linejoin="round" viewBox="0 0 24 24" id="icon-projects" xmlns="http://www.w3.org/2000/svg"><path d="M0 0h24v24H0z" stroke="none"/><path d="M5 4h4l3 3h7a2 2 0 0 1 2 2v8a2 2 0 0 1-2 2H5a2 2 0 0 1-2-2V6a2 2 0 0 1 2-2"/></symbol><symbol fill="none" stroke="currentColor" stroke-width="2" stroke-linecap="round" stroke-linejoin="round" class="axicon axicon-tabler axicons-tabler-outline axicon-tabler-circle-letter-r" viewBox="0 0 24 24" id="icon-resource" xmlns="http://www.w3.org/2000/svg"><path d="M0 0h24v24H0z" stroke="none"/><path d="M3 12a9 9 0 1 0 18 0 9 9 0 1 0-18 0"/><path d="M10 12h2a2 2 0 1 0 0-4h-2v8m4 0-3-4"/></symbol><symbol class="ayicon ayicon-tabler ayicon-tabler-coins" stroke-width="2" stroke="currentColor" fill="none" stroke-linecap="round" stroke-linejoin="round" viewBox="0 0 24 24" id="icon-resources" xmlns="http://www.w3.org/2000/svg"><path d="M0 0h24v24H0z" stroke="none"/><path d="M9 14c0 1.657 2.686 3 6 3s6-1.343 6-3-2.686-3-6-3-6 1.343-6 3z"/><path d="M9 14v4c0 1.656 2.686 3 6 3s6-1.344 6-3v-4M3 6c0 1.072 1.144 2.062 3 2.598s4.144.536 6 0c1.856-.536 3-1.526 3-2.598 0-1.072-1.144-2.062-3-2.598s-4.144-.536-6 0C4.144 3.938 3 4.928 3 6z"/><path d="M3 6v10c0 .888.772 1.45 2 2"/><path d="M3 11c0 .888.772 1.45 2 2"/></symbol><symbol class="azicon azicon-tabler azicon-tabler-adjustments-alt" stroke-width="2" stroke="currentColor" fill="none" stroke-linecap="round" stroke-linejoin="round" viewBox="0 0 24 24" id="icon-settings" xmlns="http://www.w3.org/2000/svg"><path d="M0 0h24v24H0z" stroke="none"/><path d="M4 8h4v4H4zM6 4v4M6 12v8M10 14h4v4h-4zM12 4v10M12 18v2M16 5h4v4h-4zM18 4v1M18 9v11"/></symbol><symbol fill="none" stroke="currentColor" stroke-width="2" stroke-linecap="round" stroke-linejoin="round" class="baicon baicon-tabler baicons-tabler-outline baicon-tabler-shield-check" viewBox="0 0 24 24" id="icon-shield-check" xmlns="http://www.w3.org/2000/svg"><path d="M0 0h24v24H0z" stroke="none"/><path d="M11.46 20.846A12 12 0 0 1 3.5 6 12 12 0 0 0 12 3a12 12 0 0 0 8.5 3 12 12 0 0 1-.09 7.06M15 19l2 2 4-4"/></symbol><symbol fill="none" stroke="currentColor" stroke-width="2" stroke-linecap="round" stroke-linejoin="round" class="bbicon bbicon-tabler bbicons-tabler-outline bbicon-tabler-shield-question" viewBox="0 0 24 24" id="icon-shield-question" xmlns="http://www.w3.org/2000/svg"><path d="M0 0h24v24H0z" stroke="none"/><path d="M15.065 19.732c-.95.557-1.98.986-3.065 1.268A12 12 0 0 1 3.5 6 12 12 0 0 0 12 3a12 12 0 0 0 8.5 3c.51 1.738.617 3.55.333 5.303M19 22v.01"/><path d="M19 19a2.003 2.003 0 0 0 .914-3.782 1.98 1.98 0 0 0-2.414.483"/></symbol><symbol fill="none" stroke="currentColor" stroke-width="2" stroke-linecap="round" stroke-linejoin="round" class="bcicon bcicon-tabler bcicons-tabler-outline bcicon-tabler-shield-search" viewBox="0 0 24 24" id="icon-shield-search" xmlns="http://www.w3.org/2000/svg"><path d="M0 0h24v24H0z" stroke="none"/><path d="M12 21A12 12 0 0 1 3.5 6 12 12 0 0 0 12 3a12 12 0 0 0 8.5 3c.539 1.832.627 3.747.283 5.588"/><path d="M15 18a3 3 0 1 0 6 0 3 3 0 1 0-6 0M20.2 20.2 22 22"/></symbol><symbol fill="none" stroke="currentColor" stroke-width="2" stroke-linecap="round" stroke-linejoin="round" class="beicon beicon-tabler beicons-tabler-outline beicon-tabler-star" viewBox="0 0 24 24" id="icon-star" xmlns="http://www.w3.org/2000/svg"><path d="M0 0h24v24H0z" stroke="none"/><path d="m12 17.75-6.172 3.245 1.179-6.873-5-4.867 6.9-1 3.086-6.253 3.086 6.253 6.9 1-5 4.867 1.179 6.873z"/></symbol><symbol fill="currentColor" class="bdicon bdicon-tabler bdicons-tabler-filled bdicon-tabler-star" viewBox="0 0 24 24" id="icon-star-filled" xmlns="http://www.w3.org/2000/svg"><path d="M0 0h24v24H0z" fill="none"/><path d="m8.243 7.34-6.38.925-.113.023a1 1 0 0 0-.44 1.684l4.622 4.499-1.09 6.355-.013.11a1 1 0 0 0 1.464.944l5.706-3 5.693 3 .1.046a1 1 0 0 0 1.352-1.1l-1.091-6.355 4.624-4.5.078-.085a1 1 0 0 0-.633-1.62l-6.38-.926-2.852-5.78a1 1 0 0 0-1.794 0L8.243 7.34z"/></symbol><symbol fill="none" stroke="currentColor" stroke-width="2" stroke-linecap="round" stroke-linejoin="round" class="bficon bficon-tabler bficons-tabler-outline bficon-tabler-device-ipad-pause" viewBox="0 0 24 24" id="icon-stop-criterion" xmlns="http://www.w3.org/2000/svg"><path d="M0 0h24v24H0z" stroke="none"/><path d="M13 21H6a2 2 0 0 1-2-2V5a2 2 0 0 1 2-2h12a2 2 0 0 1 2 2v8M9 18h4M17 17v5M21 17v5"/></symbol><symbol fill="none" stroke="currentColor" stroke-width="2" stroke-linecap="round" stroke-linejoin="round" class="bgicon bgicon-tabler bgicons-tabler-outline bgicon-tabler-drop-circle" viewBox="0 0 24 24" id="icon-target" xmlns="http://www.w3.org/2000/svg"><path d="M0 0h24v24H0z" stroke="none"/><path d="M10.07 15.34c1.115.88 2.74.88 3.855 0 1.115-.88 1.398-2.388.671-3.575L12 8l-2.602 3.765c-.726 1.187-.443 2.694.672 3.575z"/><path d="M3 12a9 9 0 1 0 18 0 9 9 0 1 0-18 0"/></symbol><symbol fill="currentColor" class="biicon biicon-tabler biicons-tabler-filled biicon-tabler-triangle" viewBox="0 0 24 24" id="icon-triangle" xmlns="http://www.w3.org/2000/svg"><path d="M0 0h24v24H0z" fill="none"/><path d="M12 1.67a2.914 2.914 0 0 0-2.492 1.403L1.398 16.61a2.914 2.914 0 0 0 2.484 4.385h16.225a2.914 2.914 0 0 0 2.503-4.371L14.494 3.078A2.917 2.917 0 0 0 12 1.67z"/></symbol><symbol fill="currentColor" class="bhicon bhicon-tabler bhicons-tabler-filled bhicon-tabler-triangle-inverted" viewBox="0 0 24 24" id="icon-triangle-inverted" xmlns="http://www.w3.org/2000/svg"><path d="M0 0h24v24H0z" fill="none"/><path d="M20.118 3H3.893A2.914 2.914 0 0 0 1.39 7.371L9.506 20.92a2.917 2.917 0 0 0 4.987.005l8.11-13.539A2.914 2.914 0 0 0 20.117 3z"/></symbol><symbol fill="none" stroke="currentColor" stroke-width="2" stroke-linecap="round" stroke-linejoin="round" class="bjicon bjicon-tabler bjicons-tabler-outline bjicon-tabler-users" viewBox="0 0 24 24" id="icon-users" xmlns="http://www.w3.org/2000/svg"><path d="M0 0h24v24H0z" stroke="none"/><path d="M5 7a4 4 0 1 0 8 0 4 4 0 1 0-8 0M3 21v-2a4 4 0 0 1 4-4h4a4 4 0 0 1 4 4v2M16 3.13a4 4 0 0 1 0 7.75M21 21v-2a4 4 0 0 0-3-3.85"/></symbol><symbol viewBox="0 0 1118.03 765.72" id="in-work" xmlns="http://www.w3.org/2000/svg"><defs><linearGradient id="bka" x1="898.64" y1="821.89" x2="898.64" y2="100.83" gradientTransform="matrix(-1 0 0 1 1741 0)" gradientUnits="userSpaceOnUse"><stop offset="0" stop-color="gray" stop-opacity=".25"/><stop offset=".54" stop-color="gray" stop-opacity=".12"/><stop offset="1" stop-color="gray" stop-opacity=".1"/></linearGradient></defs><path d="M649.58 113.22c-71.67-2.28-139.94-23.52-205.12-46.75s-129.76-49-199.72-61.28c-45-7.92-96.45-9-132.71 13.1-34.88 21.3-46.16 58.08-52.22 92.21-4.56 25.67-7.24 52.69 5.25 76.73 8.68 16.68 24.08 30.71 34.73 46.69 37.07 55.62 10.87 124.2-29.3 178.5-18.84 25.44-40.69 49.78-55.23 76.89s-21.25 58.19-8.54 85.85c12.61 27.42 42.65 48 75.2 62.5 66.1 29.42 144 37.84 220 42.61 168.09 10.59 337.09 5.98 505.72 1.41 62.39-1.7 125-3.41 186.43-12.27 34.08-4.92 69.27-12.72 94-31.56 31.42-23.91 39.2-64.41 18.15-94.39-35.3-50.3-132.92-62.8-157.6-116.77-13.61-29.72.39-62.83 20.12-90.37 42.34-59.11 113.32-111 117.06-178.54 2.57-46.41-31.55-92.89-84.31-114.85-55.3-23-132-20.12-172.79 18-42.01 39.21-115.83 54.31-179.12 52.29Z" fill="#4285f4" opacity=".1"/><ellipse cx="802.9" cy="744.72" rx="129" ry="21" fill="#4285f4" opacity=".1"/><path fill="#5f5d7e" d="m295.39 389.56-.32 17.64-2.62 143.02-22.41 52.49-77.24.88V397.68l80.61-6.38 21.98-1.74z"/><path opacity=".1" d="m295.39 389.56-.32 17.64-2.62 143.02-22.41 52.49-77.24.88V397.68l80.61-6.38 21.98-1.74z"/><path fill="#5f5d7e" d="m295.39 389.56-.32 17.64-2.62 143.02-22.41 52.49 5.9-195.17-.02-.13-2.51-16.11 21.98-1.74z"/><path opacity=".1" d="m273.41 391.3 21.98-1.74-.32 17.64-19.15.21-83.12.93v-10.66l80.61-6.38z"/><path fill="#5f5d7e" d="M989.68 397.68V602.4H971.7l-71.94-52.47V391.91l64.27-6.04 3.94 1.81 3.73 1.72 17.98 8.28z"/><path opacity=".1" d="M971.7 387.68h17.98V602.4H971.7z"/><path opacity=".1" d="M989.68 387.68v11.77l-17.98.21-71.94.79v-8.54l64.27-6.04 3.94 1.81 3.73 1.72v-1.72h17.98z"/><path fill="#5f5d7e" d="M989.68 381v16.68l-883.55 9.86v-21.23l83.13-16.81 723.47-5.3 76.95 16.8z"/><path opacity=".1" d="M989.68 381v16.68l-883.55 9.86v-21.23L989.68 381z"/><ellipse cx="256.69" cy="374.88" rx="39.83" ry="2.55" opacity=".1"/><path d="M290.12 276.29a15.18 15.18 0 0 0-2 3.8c-.12.33-.24.71-.36 1.07a3.13 3.13 0 0 0-.71-.24 9.8 9.8 0 0 0-3.15-.28q0-.61.06-1.29c.13-4.66-.42-11.16-4.87-8.41-4.26 2.65-1.22 7.06 1.53 9.91.24.25.48.48.71.7-2.51 1.8-3 5.95-3.41 10.29s-4.1 9.1-6.54 11.8l-.7.75a8.92 8.92 0 0 0-7.11-1.83q-.17-.57-.33-1.2c-2-7.15-6.09-19.54-11.34-22.26l.69-.87c2.23-2.92 4.74-7.25 1-8.36s-4 3.76-3.83 7.4c0 .46.06.89.1 1.3a5.46 5.46 0 0 0-3.85 1.89c-.18-.22-.36-.44-.57-.68-3-3.55-8.52-9.17-10.19-4.91-1.55 4 3.3 9.1 6.72 12.08l.21.19c-2.29 9.3 7.71 16.88 13.1 20.19l.69.43c-7.43 8.75-12 25.16-12 25.16l20.8 3.72s13.79-11.9 12-23.08h.14c13.78-2.76 16.92-17.46 14.77-26.18l.25-.1a15.77 15.77 0 0 0 6.38-4.83c3.86-5.37-4.23-11.42-8.19-6.16Z" fill="#4285f4"/><path d="M290.12 276.29a15.18 15.18 0 0 0-2 3.8c-.12.33-.24.71-.36 1.07a3.13 3.13 0 0 0-.71-.24 9.8 9.8 0 0 0-3.15-.28q0-.61.06-1.29c.13-4.66-.42-11.16-4.87-8.41-4.26 2.65-1.22 7.06 1.53 9.91.24.25.48.48.71.7-2.51 1.8-3 5.95-3.41 10.29s-4.1 9.1-6.54 11.8l-.7.75a8.92 8.92 0 0 0-7.11-1.83q-.17-.57-.33-1.2c-2-7.15-6.09-19.54-11.34-22.26l.69-.87c2.23-2.92 4.74-7.25 1-8.36s-4 3.76-3.83 7.4c0 .46.06.89.1 1.3a5.46 5.46 0 0 0-3.85 1.89c-.18-.22-.36-.44-.57-.68-3-3.55-8.52-9.17-10.19-4.91-1.55 4 3.3 9.1 6.72 12.08l.21.19c-2.29 9.3 7.71 16.88 13.1 20.19l.69.43c-7.43 8.75-12 25.16-12 25.16l20.8 3.72s13.79-11.9 12-23.08h.14c13.78-2.76 16.92-17.46 14.77-26.18l.25-.1a15.77 15.77 0 0 0 6.38-4.83c3.86-5.37-4.23-11.42-8.19-6.16Z" opacity=".1"/><path d="m248.71 282.29-2.43 7.12s-1.35-.95-3.06-2.46c-3.41-3-8.27-8.12-6.71-12.08 1.67-4.26 7.18 1.36 10.19 4.91a49.15 49.15 0 0 1 2.01 2.51ZM253.84 278.23a35 35 0 0 1-2.37 2.79 37 37 0 0 1-.43-3.75c-.2-3.64.18-8.48 3.83-7.4s1.2 5.44-1.03 8.36ZM285.21 279.35c-.07 2.34-.3 4.21-.3 4.21a28.6 28.6 0 0 1-3-2.71c-2.75-2.85-5.8-7.26-1.53-9.91 4.41-2.75 4.96 3.75 4.83 8.41ZM299.58 282.42a15.77 15.77 0 0 1-6.38 4.83 18.3 18.3 0 0 1-2.14.77l-2.87-4a30.14 30.14 0 0 1 1.19-3.91 15.18 15.18 0 0 1 2-3.8c3.97-5.28 12.06.77 8.2 6.11Z" fill="#4285f4"/><path d="M246.7 279.78c1.21 1.42 2 2.51 2 2.51l-2.43 7.12s-1.35-.95-3.06-2.46a13.87 13.87 0 0 1 2.74-6.25c.25-.33.5-.64.75-.92ZM253.84 278.23a35 35 0 0 1-2.37 2.79 37 37 0 0 1-.43-3.75 4.88 4.88 0 0 1 2.8.96Z" opacity=".1"/><path d="m265.8 306.49-6.05 2.66a35.85 35.85 0 0 1-3.22-1.82c-6.36-3.91-19.14-13.75-10.57-25.36s15.72 9.21 18.53 19.39c.85 3.04 1.31 5.13 1.31 5.13Z" fill="#4285f4"/><path d="M281.88 280.86a4.92 4.92 0 0 1 3.33-1.5c-.07 2.34-.3 4.21-.3 4.21a28.6 28.6 0 0 1-3.03-2.71ZM293.2 287.25a18.3 18.3 0 0 1-2.14.77l-2.87-4a30.14 30.14 0 0 1 1.19-3.91c1.85 1.06 3.21 3.75 3.82 7.14Z" opacity=".1"/><path d="M278.18 313.53q-.5.1-1 .18c-20.27 3.09-6.68-7.86-6.68-7.86s.91-.84 2.15-2.21c2.44-2.7 6.13-7.43 6.55-11.8.63-6.57 1.37-12.73 9.13-10.92s9.05 28.77-10.15 32.61Z" fill="#4285f4"/><path fill="#474157" d="M239.06 364.02h38.75v10.19h-38.75z"/><path fill="#474157" d="M232.9 330.91h50.63v35.56H232.9z"/><path opacity=".1" d="M238.68 364.02h38.75v10.19h-38.75z"/><path opacity=".1" d="M232.74 330.91h50.63v35.56h-50.63z"/><path fill="#474157" d="M241.61 364.02h38.75v10.19h-38.75z"/><path d="M264.49 301.36c.85 3 1.31 5.13 1.31 5.13l-6.05 2.66a35.85 35.85 0 0 1-3.22-1.82c2.37-3 5.04-5.27 7.96-5.97ZM278.18 313.53q-.5.1-1 .18c-20.27 3.09-6.68-7.86-6.68-7.86s.91-.84 2.15-2.21c3.76 3.03 5.36 6.44 5.53 9.89Z" opacity=".1"/><path d="M245.21 332.92s11.36-40.65 27.28-28.12-6.48 31.84-6.48 31.84Z" fill="#4285f4"/><circle cx="250.95" cy="288.34" r="1.27" opacity=".1"/><circle cx="250.84" cy="294.29" r="1.27" opacity=".1"/><circle cx="287.78" cy="289.51" r="1.27" opacity=".1"/><circle cx="258.06" cy="319.97" r="1.27" opacity=".1"/><circle cx="285.12" cy="299.38" r="1.27" opacity=".1"/><circle cx="271.96" cy="312.54" r="1.27" opacity=".1"/><circle cx="255.3" cy="290.89" r="1.27" opacity=".1"/><circle cx="284.27" cy="293.33" r="1.27" opacity=".1"/><circle cx="279.92" cy="303.2" r="1.27" opacity=".1"/><circle cx="266.55" cy="319.02" r="1.27" opacity=".1"/><circle cx="263.79" cy="312.76" r="1.27" opacity=".1"/><circle cx="257.21" cy="298.64" r="1.27" opacity=".1"/><path opacity=".1" d="M241.61 364.02h38.75v3.72h-38.75z"/><path fill="#474157" d="M235.45 330.91h50.63v35.56h-50.63z"/><circle cx="268.25" cy="324.75" r="1.27" opacity=".1"/><circle cx="260.6" cy="326.34" r="1.27" opacity=".1"/><path d="M382.01 466.79s6.31 8.25-2.91 20.71-16.83 23-13.76 30.74c0 0 13.92-23.14 25.24-23.46s3.85-14.08-8.57-27.99Z" fill="#4285f4"/><path d="M382.01 466.79a10.49 10.49 0 0 1 1.29 2.58c11.05 13 16.94 25.11 6.31 25.41-9.89.28-21.76 18-24.6 22.44a8.67 8.67 0 0 0 .33 1s13.92-23.14 25.24-23.46 3.85-14.06-8.57-27.97Z" opacity=".1"/><path d="M393.7 477.3c0 2.91-.33 5.26-.73 5.26s-.73-2.35-.73-5.26.41-1.53.81-1.53.65-1.37.65 1.53Z" fill="#ffd037"/><path d="M397.72 480.77c-2.55 1.39-4.77 2.23-5 1.88s1.72-1.77 4.27-3.16 1.54-.38 1.73 0 1.55-.11-1 1.28Z" fill="#ffd037"/><path d="M348.64 466.79s-6.32 8.25 2.91 20.71 16.83 23 13.75 30.74c0 0-13.91-23.14-25.24-23.46s-3.88-14.08 8.58-27.99Z" fill="#4285f4"/><path d="M348.64 466.79a10.08 10.08 0 0 0-1.29 2.58c-11.06 13-16.94 25.11-6.32 25.41 9.9.28 21.77 18 24.61 22.44-.1.35-.21.69-.34 1 0 0-13.91-23.14-25.24-23.46s-3.88-14.06 8.58-27.97Z" opacity=".1"/><path d="M336.9 477.3c0 2.91.33 5.26.73 5.26s.73-2.35.73-5.26-.41-1.53-.81-1.53-.65-1.37-.65 1.53Z" fill="#ffd037"/><path d="M332.88 480.77c2.55 1.39 4.77 2.23 5 1.88s-1.71-1.77-4.26-3.16-1.55-.38-1.74 0-1.55-.11 1 1.28Z" fill="#ffd037"/><ellipse cx="365.31" cy="571.24" rx="65.98" ry="10.13" fill="#4285f4" opacity=".1"/><path d="m399.26 507.12-.32 2.58-.44 3.64-.18 1.51-.44 3.65-.2 1.51-.44 3.64-5.05 41.39c-.45 3.7-6.48 6.58-13.77 6.58h-26.24c-7.28 0-13.31-2.88-13.76-6.58l-5.06-41.39-.44-3.64-.18-1.51-.46-3.65-.18-1.51-.44-3.64-.32-2.58c-.25-2.09 3-3.85 7.14-3.85h53.65c4.12 0 7.39 1.76 7.13 3.85Z" fill="#65617d"/><path fill="#9d9cb5" d="m398.95 509.69-.45 3.64h-66.39l-.45-3.64h67.29zM398.32 514.85l-.44 3.64h-65.14l-.45-3.64h66.03zM397.69 520.01l-.44 3.64h-63.88l-.45-3.64h64.77z"/><path d="M565.47 366.54v2.06h-60.91v-1.67a20 20 0 0 0 13.06-18.78 20 20 0 0 0-11.68-18.19h59.12a20 20 0 0 0 .41 36.58Z" fill="#c8cad7"/><path d="M565.06 329.96a20 20 0 0 0-11.05 13.27h-37a20.06 20.06 0 0 0-11.07-13.27Z" opacity=".1"/><path d="M434.81 319.46v11.57c0 6.38 4.68 11.56 10.44 11.56h179.21c5.76 0 10.44-5.18 10.44-11.56v-11.57Z" fill="#c8cad7"/><path d="M565.47 366.54v2.06h-60.91v-1.67a20.16 20.16 0 0 0 4.7-2.5h52.48a20.12 20.12 0 0 0 3.73 2.11Z" opacity=".1"/><rect x="484.44" y="365.07" width="101.17" height="6.1" rx="3.05" fill="#c8cad7"/><path d="M634.9 192.77a10.44 10.44 0 0 0-10.44-10.44H445.25a10.44 10.44 0 0 0-10.44 10.44v128.94H634.9Z" fill="#5f5d7e"/><path d="M629.44 197.42v110.8a5.14 5.14 0 0 1-5.14 5.14H445.41a5.14 5.14 0 0 1-5.14-5.14v-110.8a5.09 5.09 0 0 1 .74-2.56 5.15 5.15 0 0 1 4.45-2.57H624.3a5.14 5.14 0 0 1 5.14 5.13Z" fill="#4285f4"/><circle cx="534.86" cy="187.3" r="2.41" fill="#fff"/><circle cx="534.86" cy="331.51" r="5.94" fill="#fff"/><path d="M629.44 197.42H440.27a5.14 5.14 0 0 1 5.14-5.14H624.3a5.14 5.14 0 0 1 5.14 5.14Z" fill="#fff"/><circle cx="445.42" cy="194.85" r="1.28" fill="#ededf4"/><circle cx="449.27" cy="194.85" r="1.28" fill="#ededf4"/><circle cx="453.12" cy="194.85" r="1.28" fill="#ededf4"/><path d="M698 489s12 4.88 26.73 10.73a38.17 38.17 0 0 1 1.16 5.14c.26 3.4 7 8.19 7 8.19s12.5 2.26 21.91 4.91c7.31 2 8.32-2 7.38-3.56l2.19.84c.49 20.24 1.05 35 1.05 35s3.2 0 8.25.24c.06.64.12 1.3.19 2 1.93 20 5.48 53 8.23 55.74 4 3.87 2.23 32.39.69 37.43s0 41.31 0 41.31 6.19 22.16 5.67 46.34 6.7 36.78 6.7 36.78l2.59.19c0 .67-.08 1.33-.11 2-.12 2.19-.21 4.38-.24 6.37a15.66 15.66 0 0 1-3 8.42 51.77 51.77 0 0 0-8.39 19.75 43.2 43.2 0 0 0-.64 4.8c0 .4-.05.62-.05.62s2.4 7.06 24.92 9.41 19.26-13.94 19.26-13.94.11-.46.25-1.3a48.78 48.78 0 0 0 .09-16.66c-.79-4.3-.11-11.74.87-18.56.1-.71.21-1.41.31-2.1a12.58 12.58 0 0 0 5.17-2.4c7.05-6.43 0-57.55 0-57.55s-12.72-41.81-9.62-47.86 6.7-20.65 6.7-20.65v-50.88c5-8.07 7.25-19.11 8.18-29.16.06-.67.12-1.33.17-2 4.17.08 8.17-.07 11.8-.32l1 2c5.9 11.43 11.9 22.75 13.37 24.42 3.09 3.53.51 19.65 0 27.71s5.67 24.18 5.67 24.18c-7.73 4.53-9.28 57.93-9.28 57.93s5.67 13.1-6.19 27.71-7.22 42.32-5.67 41.31c.41-.27 2.92.14 6.49.73a17.14 17.14 0 0 1-3.4 6.52c-3.83 4.76-5.14 12.22-5.52 18.18a65.11 65.11 0 0 0 0 9.33l8.59 6s5.33 0 5.33 4.71 13.06 9.4 13.06 9.4 19.42 5.37 34.38 0c4.85-1.74 6.33-4.73 5.76-8.36-1.18-7.59-11.33-18-18.65-25.56-4.94-5.13-7.19-11.93-8.19-17.82-.11-.63-.2-1.25-.28-1.86a5.9 5.9 0 0 0 1.59-1.31c6.19-7.56 12.89-28.21 12.89-28.21S901.3 714.18 908 695c5-14.19 11.07-47.45 13.89-63.74a63.55 63.55 0 0 0 .56-17.9c-1.3-11.89-3.3-33.92-2.59-51.36.24-5.69.07-14.74-.32-25.35v-.15c3.67-6.93 11.63-18.24 24.91-19.17 19.25-1.35 9.28-11.92 9.28-11.92S942.44 426.08 935 412a5.81 5.81 0 0 0-.39-.71c-1.1-1.75-2.3-5.25-3.57-9.92-7.33-27.05-16.71-93.69-16.71-93.69l-1.15-16.21c11.48 5.63 32.78 15.9 41.37 18.9 12 4.2 28.7 1.51 32.83-12.26s-13.06-41.64-13.06-41.64c-2.53-9.88-20-30.45-29.09-40.66-.88-1.33-1.75-2.65-2.6-3.91-2.34-3.49-4.45-6.57-5.79-8.38l-.13.25c-.33-.46-.64-.89-.91-1.25l-.22.44c-3.25-6-6.9-12.17-9.73-15.48-6.58-7.68-35.28-15.94-38.12-13.67-2.07 1.65 6.52 8.85 12.53 13.27l-5.74-3.88-12.83-11.1-5.65-3.82a5.41 5.41 0 0 0-.74-.42 40.52 40.52 0 0 0-6.52-33.86c-.4-.55-.83-1.1-1.26-1.63 5.91-4.92 7.78-13.05 7.78-20.2v-.27a14.33 14.33 0 0 0-3.43-7.21c.09.18.18.38.26.57a11.61 11.61 0 0 0-8.65-4.45c-5-.08-9.19 3.2-13.58 5.45a35.09 35.09 0 0 1-29.25 1c-2.71-1.16-5.44-2.7-8.38-2.46s-5.27 2.13-7.27 4.1a47.69 47.69 0 0 0-11.1 16.42c-.74 1.81-1.4 3.74-2.83 5.1a19.93 19.93 0 0 1-3.52 2.3 18.91 18.91 0 0 0-8.39 12.28 26.44 26.44 0 0 0 1.51 14.85 22.44 22.44 0 0 0 5.54 8.6c1.87 1.73 4.11 3 6.09 4.63a21.91 21.91 0 0 1 2.51 2.4 47.59 47.59 0 0 0-23.67 13.12 62.06 62.06 0 0 0-12 16.12c-8.37 15.73-13.45 25.52-16.47 31.73-1.51.46-2.44.68-2.44.68s-11.34 10.07-11.17 38.95l-8.77 57.76v29.55S709 395.46 710.85 422c0 .36 0 .71.07 1.06l-.92 4.51a10.39 10.39 0 0 0-2 6.68 8.55 8.55 0 0 0 .18 2.44l-4.6 22.72.87.92-2.37 6.67c-8.93 14.27-4.08 22-4.08 22Zm66.32-162c.57.39.89.59.89.59s5 44.77 2 71.39l-10.53-.72-5-1.54 1.79-14.23S759.88 345 764.28 327Zm41.38-129.95 1-1.54c-.21.55-.42 1.09-.64 1.59Zm-47.53 201.71 5.45.56 3.45.72q-.09.72-.18 1.41ZM875.3 205.2a12.16 12.16 0 0 0-.1-1.49l4.28 2.54.26.16c-1.48-.43-3-.81-4.44-1.16Zm33.22 19.8a32.11 32.11 0 0 0-1.9-2.67c3 .72 4.86 1.14 4.86 1.14a13.28 13.28 0 0 1 7.12.72 39.72 39.72 0 0 0 2.47 4.32l7.9 15.3s-1.72.17-5.16-1.51-15.29-17.3-15.29-17.3ZM758.43 513l2.47 1c-.55.17-1.43-.23-2.47-1Z" transform="translate(-40.99 -67.14)" fill="url(#bka)"/><path d="M803.01 117.15c3.18 1.87 3.28 9.86 2.79 16.27-.35 4.69-1 8.53-1 8.53l20.69 50.3s7.67-35.84 7.79-51.84a11.86 11.86 0 0 0-.57-3.72c-3.61-11.53-23.89-17.93-29.7-19.54ZM801.52 116.75s.56.13 1.53.4a3 3 0 0 0-1.53-.4ZM808.69 729.08l8.33 6s5.17 0 5.17 4.67 12.66 9.33 12.66 9.33 18.84 5.33 33.34 0c4.7-1.73 6.14-4.69 5.59-8.3-1.15-7.53-11-17.82-18.09-25.37-4.79-5.09-7-11.84-7.94-17.68a52.82 52.82 0 0 1-.56-12.65l-30.5-2.17a20.14 20.14 0 0 1 0 14.29 18.58 18.58 0 0 1-2.67 4.58c-3.72 4.72-5 12.13-5.36 18a65.93 65.93 0 0 0 .03 9.3ZM746.01 742.91s2.33 7 24.17 9.34 18.67-13.84 18.67-13.84.11-.46.25-1.29a49.76 49.76 0 0 0 .08-16.54c-.76-4.26-.1-11.65.85-18.42 1.12-8.06 2.65-15.25 2.65-15.25l-33.84 2.5s-.59 6.89-.93 13.85c-.11 2.17-.2 4.34-.23 6.32a15.78 15.78 0 0 1-2.92 8.35 52.17 52.17 0 0 0-8.08 19.6 44.57 44.57 0 0 0-.62 4.76c-.05.4-.05.62-.05.62Z" fill="#67647e"/><path d="m808.69 729.08 8.33 6s5.17 0 5.17 4.67 12.66 9.33 12.66 9.33 18.84 5.33 33.34 0c4.7-1.73 6.14-4.69 5.59-8.3-.45 0-.88.06-1.24.07-5.94.19-11.72 1.79-17.63 2.32a87.64 87.64 0 0 1-10.12.16 35.3 35.3 0 0 1-5-.39c-4-.71-7.71-2.78-11.28-4.81a6.4 6.4 0 0 1-2.25-1.76 8.6 8.6 0 0 1-1-2.68c-1.26-4.52-4.78-8.14-8.82-10.52a38.46 38.46 0 0 0-7.77-3.35 65.93 65.93 0 0 0 .02 9.26ZM746.01 742.91s2.33 7 24.17 9.34 18.67-13.84 18.67-13.84.11-.46.25-1.29c-1 .52-1.85 1-2.24 1.22-2 1.17-3.79 2.78-5.87 3.87-5 2.63-11 1.85-16.64 1-2.65-.4-5.3-.8-7.94-1.29a20.08 20.08 0 0 1-5.81-1.72 34.62 34.62 0 0 1-3.92-2.66 44.57 44.57 0 0 0-.62 4.76c-.05.39-.05.61-.05.61Z" fill="#67647e"/><path d="m808.69 729.08 8.33 6s5.17 0 5.17 4.67 12.66 9.33 12.66 9.33 18.84 5.33 33.34 0c4.7-1.73 6.14-4.69 5.59-8.3-.45 0-.88.06-1.24.07-5.94.19-11.72 1.79-17.63 2.32a87.64 87.64 0 0 1-10.12.16 35.3 35.3 0 0 1-5-.39c-4-.71-7.71-2.78-11.28-4.81a6.4 6.4 0 0 1-2.25-1.76 8.6 8.6 0 0 1-1-2.68c-1.26-4.52-4.78-8.14-8.82-10.52a38.46 38.46 0 0 0-7.77-3.35 65.93 65.93 0 0 0 .02 9.26ZM746.01 742.91s2.33 7 24.17 9.34 18.67-13.84 18.67-13.84.11-.46.25-1.29c-1 .52-1.85 1-2.24 1.22-2 1.17-3.79 2.78-5.87 3.87-5 2.63-11 1.85-16.64 1-2.65-.4-5.3-.8-7.94-1.29a20.08 20.08 0 0 1-5.81-1.72 34.62 34.62 0 0 1-3.92-2.66 44.57 44.57 0 0 0-.62 4.76c-.05.39-.05.61-.05.61ZM816.69 682.91a20.14 20.14 0 0 1 0 14.29c8.75 1.49 25.06 4.5 31.06.53a52.82 52.82 0 0 1-.56-12.65ZM757.92 703.26c6.18.44 22.81 1.31 32.12-1.1 1.12-8.06 2.65-15.25 2.65-15.25l-33.84 2.5s-.59 6.89-.93 13.85Z" opacity=".1"/><path d="M733.52 470.08s.52 6.25 1.35 15c1.87 19.86 5.32 52.65 8 55.32 3.84 3.85 2.17 32.15.67 37.15s0 41 0 41a183 183 0 0 1 5.5 46c-.5 24 6.5 36.5 6.5 36.5s33 3 39.83-3.38 0-57.12 0-57.12-12.36-41.47-9.36-47.47 6.5-20.5 6.5-20.5v-50.5c4.85-8 7-19 7.93-28.94a152.17 152.17 0 0 0 .07-25.56s6.21 12.7 12.54 25.26c5.72 11.35 11.54 22.58 13 24.24 3 3.5.5 19.5 0 27.5s5.5 24 5.5 24c-7.5 4.5-9 57.5-9 57.5s5.5 13-6 27.5-7 42-5.5 41 32 7.5 38 0 12.5-28 12.5-28-3-21 3.5-40c4.82-14.08 10.73-47.09 13.47-63.26a64.45 64.45 0 0 0 .49-17.76c-1.26-11.81-3.2-33.67-2.51-51 .23-5.65.07-14.63-.31-25.16-1.29-36.1-5.19-90.34-5.19-90.34l-27.1-18.36-17.89-12.12-4.38.67-81.62 12.61-3.17 40.26Z" fill="#444053"/><path d="m843.92 360.72 1.43 7.86s12 57.5 14.5 87 13 21 13 21a46.76 46.76 0 0 1 3.36-7.16c-1.29-36.1-5.19-90.34-5.19-90.34Z" opacity=".1"/><path d="M758.19 142.58s56 44.83 45.66 35.83c-5.66-4.94-1.81-26 2.83-44 3.82-14.85 8.17-27.63 8.17-27.63s-48.88-45.73-45.33-8.34c1.25 13.18.21 22.55-1.66 29.17-3.43 12.13-9.67 14.97-9.67 14.97Z" fill="#efb7b9"/><path d="m762.85 130.66 35.5 27.75 10.33-11.5s8.84-3.83 9.5.5 3.17 31-2 33.5-11.83 4.17-17.66 3.34-12.34-7.34-16.67-9.84-20.33-15.5-20.33-15.5l-8-11.16Z" opacity=".1"/><path d="m762.85 131.66 35.5 27.75 10.33-11.5s8.84-3.83 9.5.5 3.17 31-2 33.5-11.83 4.17-17.66 3.34-12.34-7.34-16.67-9.84-20.33-15.5-20.33-15.5l-8-11.16Z" fill="#a36468"/><path d="M733.52 470.08s.52 6.25 1.35 15c11 .42 32.34 1.72 47.32 5.64a82.1 82.1 0 0 0 18.26 2.39 152.17 152.17 0 0 0 .07-25.56s6.21 12.7 12.54 25.26a132.25 132.25 0 0 0 16.13-2.09l-6.67-86.67s.22-29.09-.88-54.83l-81.63 12.64-3.17 40.26ZM794.85 156.08s-24.25-26.51-30-22.3-9.47 14.47-9.47 14.47l19.75 21.66Z" opacity=".1"/><path d="M793.85 155.08s-24.25-26.51-30-22.3-9.47 14.47-9.47 14.47l19.75 21.66Z" fill="#a36468"/><path d="m814.01 172.07-14-17.55s2.2-16.59 7.32-14.47 6.68 10.61 6.68 10.61Z" opacity=".1"/><path d="m815.01 170.91-13.93-17.55s2.2-16.59 7.32-14.47 6.61 10.61 6.61 10.61Z" fill="#a36468"/><path d="M750.85 139.41s28.71 31 45.85 33.08c1.55.19 3.1.45 4.63.76 4.48.88 14.24 0 12.69-25.63l2.16-4.54 13.34 8.17 4.5 36.66 8 94 11.83 104.67s-36.33-3.5-46.5 5.67-13-50-13-50l-27.83-120-29.67-77.17Z" opacity=".1"/><path d="m736.85 149.08 29.67 77.17 27.83 120s2.84 59.16 13 50c3.32-3 9.44-4.64 16.17-5.49a146.63 146.63 0 0 1 24.92-.56c3.32.18 5.41.38 5.41.38l-11.84-104.67-8-94-4.5-36.66-13.33-8.17-2.17 4.54c0 .67.07 1.33.1 2 .94 23.68-8.43 24.52-12.78 23.66-1.54-.31-3.08-.57-4.64-.76-12.14-1.49-30.08-17.46-39.51-26.64-3.89-3.8-6.34-6.44-6.34-6.44Z" opacity=".1"/><path d="m736.85 146.08 29.67 77.17 27.83 120s2.84 59.16 13 50c3.32-3 9.44-4.64 16.17-5.49a146.63 146.63 0 0 1 24.92-.56c3.32.18 5.41.38 5.41.38l-11.84-104.67-8-94-4.5-36.66-13.33-8.17-2.17 4.54c0 .67.07 1.33.1 2 .94 23.68-8.43 24.52-12.78 23.66-1.54-.31-3.08-.57-4.64-.76-12.14-1.49-30.08-17.46-39.51-26.64-3.89-3.8-6.34-6.44-6.34-6.44Z" fill="#4285f4"/><path d="M814.01 148.62c0 .67.07 1.33.1 2l.23.16c3.52 2.32 9.17 41.5 9.17 41.5l7.33 99.83 13.5 74.5s1.77 8.49 4.09 20.62c3.32.18 5.41.38 5.41.38l-11.83-104.7-8-94-4.5-36.66-13.33-8.17Z" opacity=".1"/><path d="M804.83 141.95s8 6.48 11.52 8.8 9.17 41.5 9.17 41.5l7.33 99.83 13.5 74.5s12 57.5 14.5 87 13 21 13 21 7.84-23 26.5-24.33 9-11.84 9-11.84-10.93-78.77-18.12-92.8a6.48 6.48 0 0 0-.38-.7c-1.06-1.74-2.23-5.21-3.46-9.85-7.11-26.84-16.2-93-16.2-93l-5.67-82c-14.51-23.65-59.51-22.83-59.51-22.83Z" fill="#67647e"/><path d="m736.85 146.08 29.67 77.17 27.83 120s2.84 59.16 13 50c3.32-3 9.44-4.64 16.17-5.49-.12-20.34-.74-56.84-3.67-72.18a203.82 203.82 0 0 1-3.16-42.5l-36.34-79.17s-27.33-33.69-27.5-38.51c-.06-1.78 1.88-5.08 4.34-8.55-3.89-3.8-6.34-6.44-6.34-6.44Z" opacity=".1"/><path d="m828.18 488.75-6.66-86.67s.5-64.67-3.67-86.5a203.44 203.44 0 0 1-3.17-42.5l-36.33-79.17s-27.33-33.69-27.5-38.51 14.31-20.85 14.31-20.85-31.64 3.7-35.81 17.86-27 19.67-27 19.67-11 10-10.83 38.67 35 51.16 35 51.16 5.83 54 .83 78.34-.67 142.66-.67 142.66 33.5.34 54.5 5.84 47 0 47 0Z" fill="#67647e"/><path d="m778.85 351.25-25.67 97.16s-3.5 8.67-21.5 2-70.33-28.33-70.33-28.33-4.67-7.67 4-21.83l26.17-76.67Z" fill="#b07473"/><path fill="#e1e7ef" d="m745.65 394.21-41.5-45.63-26.5-10.75-10.88 54.87 50.38 54.75 28.5-53.24z"/><path d="M701.3 409.45s12.34 7.25 15.59 7.5 14.73 21.92 9.88 21.75-16.13-6-15-3 8.48 12 10.62 11.15 3.13 6.6-6 4-21.25-4.88-21.25-4.88-6.5-4.75-6.75-8.12-5.87-21.13-5.87-21.13ZM899.41 153.45s-10.68-23.05-17.06-30.68-34.21-15.82-37-13.57 14 14.89 17 16.51-19.39 16.67-19.84 17-17.5-1.52-8.75 4.23 34.62 11.61 34.62 11.61a13 13 0 0 1 10 2.39c5.01 3.64 21.03-7.49 21.03-7.49Z" fill="#efb7b9"/><path d="M677.24 410.61a69.18 69.18 0 0 0 5.66 13.35c2.5-2.26 26.37-10.13 26.37-10.13l-2.65-4.09-4.32-6.66s-21.28-4.62-24.9 0c-1.22 1.55-1 4.41-.16 7.53Z" opacity=".1"/><path d="M676.24 409.61a69.18 69.18 0 0 0 5.66 13.35c2.5-2.26 26.37-10.13 26.37-10.13l-2.65-4.09-4.32-6.66s-21.28-4.62-24.9 0c-1.22 1.55-1 4.41-.16 7.53Z" fill="#a36468"/><path d="M875.01 158.66a35.16 35.16 0 0 0 2.7 4.94c3.85 6.07 9.68 13.23 9.68 13.23s22.74-10.46 22.74-10.92-6.9-11.33-12.51-19.9c-2.27-3.46-4.32-6.52-5.62-8.31 0 0-8.49 17.76-16.87 17.88-2.19.03-1.02.91-.12 3.08Z" opacity=".1"/><path d="M876.01 159.66a35.16 35.16 0 0 0 2.7 4.94c3.85 6.07 9.68 13.23 9.68 13.23s22.74-10.46 22.74-10.92-6.9-11.33-12.51-19.9c-2.27-3.46-4.32-6.52-5.62-8.31 0 0-8.49 17.76-16.87 17.88-2.19.03-1.02.91-.12 3.08Z" fill="#a36468"/><path fill="#b07473" d="m747.77 343.08 2.92-8.75-40.98-2.88 15.31 1.63 19.5 4.18-1.5 5.82h4.75z"/><path d="M676.24 409.61c4.52-2.13 16.58-6.56 29.38-.87l-4.32-6.66s-21.28-4.62-24.9 0c-1.22 1.55-1 4.41-.16 7.53Z" opacity=".1"/><path d="M673.85 355.58c.1 1.45.19 2.9.28 4.34.25 4.41.42 8.78.53 13 .5 19.54-.31 35.66-.31 35.66s15.5-9.33 32-1.5l1.66-31.62v-.55l1.69-13.83 5.48-44.67s10.33-62 13.5-64.33-23.5-52.5-23.5-52.5l-13.67 11.17-8.5 57.33v29.33s-11 31.84-9.16 58.17Z" fill="#67647e"/><path d="m875.52 158.25 3.2 6.35c3.85 6.07 9.68 13.23 9.68 13.23s22.74-10.46 22.74-10.92-6.9-11.33-12.51-19.9c-1.73-2-2.78-3.1-2.78-3.1 6.67 16.5-20.33 14.34-20.33 14.34Z" opacity=".1"/><path d="m856.18 155.4 9.34 4.68s11.5 15.5 14.83 17.17 5 1.5 5 1.5l-9.83-19.5s27 2.16 20.33-14.34c0 0 30.17 33 33.5 46.34 0 0 16.67 27.66 12.67 41.33s-20.17 16.33-31.84 12.17-47.5-22.5-47.5-22.5Z" fill="#67647e"/><path d="M889.68 187.91s25.17 28.17 23.17 32-21.84-26.33-23.17-32Z" opacity=".1"/><path d="M776.1 112.08s-35.42-10.67-55.42 27.83-20.67 41.17-19.67 43 39.83-8.33 42-3.83-22 23-22 23l93.66 71-39.35-83.64a63 63 0 0 0-10.46-16.07c-6.47-7.24-15.32-18.33-12.19-21.75 2.76-3 7.18-10.83 13.14-19.84 4.37-6.61 11.31-14.06 10.29-19.7Z" opacity=".2"/><path d="M777.1 111.08s-35.42-10.67-55.42 27.83-20.67 41.17-19.67 43 39.83-8.33 42-3.83-22 23-22 23l92.66 72-38.35-84.64a63 63 0 0 0-10.46-16.07c-6.47-7.24-15.32-18.33-12.19-21.75 2.76-3 7.18-10.83 13.14-19.84 4.37-6.61 11.31-14.06 10.29-19.7Z" fill="#67647e"/><path d="M777.1 111.08s-35.42-10.67-55.42 27.83-20.67 41.17-19.67 43 39.83-8.33 42-3.83-22 23-22 23l92.66 72-40.19-88.71a34.79 34.79 0 0 0-6.24-9.39c-6.33-6.82-18.11-20.49-14.57-24.36 2.76-3 7.18-10.83 13.14-19.84 4.37-6.61 11.31-14.06 10.29-19.7Z" opacity=".1"/><circle cx="769.85" cy="280.24" r="7.33" fill="#444053"/><circle cx="769.85" cy="325.74" r="7.33" fill="#444053"/><path d="M674.66 372.92c4.22 1 24.23.55 33.33 2.54v-.55l1.69-13.83c-10.26-1.28-32.56-3.71-35.58-1.16-3.91 3.33-4.47 11.85.56 13Z" fill="#67647e"/><path d="M674.66 373.92c4.22 1 24.23.55 33.33 2.54v-.55l1.69-13.83c-10.26-1.28-32.56-3.71-35.58-1.16-3.91 3.33-4.47 11.85.56 13Z" opacity=".1"/><path d="M674.66 372.92c4.22 1 24.23.55 33.33 2.54v-.55l1.69-13.83c-10.26-1.28-32.56-3.71-35.58-1.16-3.91 3.33-4.47 11.85.56 13Z" opacity=".1"/><circle cx="679.02" cy="366.24" r="4.42" fill="#444053"/><path d="m762.52 383.91-18.67 63.67s-5 2.33-5-1.83 23.67-61.84 23.67-61.84Z" fill="#fff" opacity=".1"/><path d="M769.68 124.48a39.81 39.81 0 0 0 3.69 2.63c6.35 4 12 9.44 20.1 9.44a40.93 40.93 0 0 0 13.21-2.17c3.82-14.85 8.17-27.63 8.17-27.63s-48.88-45.73-45.33-8.34c1.25 13.18 2.03 19.45.16 26.07Z" opacity=".1"/><path d="M752.41 93.49a41.06 41.06 0 1 0 41.06-41.06 40.87 40.87 0 0 0-41.06 41.06Z" fill="#efb7b9"/><path d="M816.74 127.86a4.64 4.64 0 0 0 1.92 2.25l6.52 4 12.19 7.41 19.29 11.72q.68.41 1.38.75a16.6 16.6 0 0 0 14.63.2 12 12 0 0 0 6.83-8.52 14.23 14.23 0 0 0-5.22-14 .92.92 0 0 0-.36-.19 35.26 35.26 0 0 1-11.4-5.57l-12.14-8.4-10.84-9.91-5.48-3.79a5.11 5.11 0 0 0-5.51-.2c-5.62 3.25-16.81 11.61-11.81 24.25Z" fill="#e1e7ef"/><path d="m825.18 134.05 12.19 7.41c2.54-10.24 9-17.47 14.61-22.93l-12.44-11c-9.46 4.69-13.22 20.33-14.36 26.52Z" fill="#a36468"/><path d="M858.01 153.93a16.6 16.6 0 0 0 14.63.2 12 12 0 0 0 6.83-8.52 14.23 14.23 0 0 0-5.22-14 30.73 30.73 0 0 0-8.3 5.21 23.32 23.32 0 0 0-7.18 11.3 24 24 0 0 0-.76 5.81ZM752.41 93.49a40.87 40.87 0 0 0 3.82 17.31 23.18 23.18 0 0 1 5.52 8.76c2.78 3.38 3.87 5.29 7.58 7.63 1.49-1.57 4.85-2.52 5.46-4.55 1.55-5.23.67-10.82.59-16.27 0-2.42.34-5.28 2.47-6.44 1.77-1 4-.28 5.74.7s3.47 2.25 5.47 2.48c3 .34 5.74-1.77 7.42-4.25s2.65-5.38 4.24-7.92c2.1-3.35 5.2-5.92 8.25-8.42 3.49-2.88 6.88-6.07 10.6-8.65 2.22-1.55 4.88-2.27 7.07-3.83l.35-.26a41.06 41.06 0 0 0-74.58 23.71Z" opacity=".1"/><path d="M833.31 48.1c-.87-5.76-5.64-11.17-11.46-11.27-4.81-.08-8.91 3.18-13.17 5.41a33.28 33.28 0 0 1-28.37 1c-2.61-1.15-5.27-2.68-8.12-2.44s-5.12 2.1-7.1 4a47.62 47.62 0 0 0-10.76 16.3c-.71 1.8-1.36 3.71-2.74 5.07a20.3 20.3 0 0 1-3.42 2.27 18.85 18.85 0 0 0-8.09 12.17 26.89 26.89 0 0 0 1.47 14.75 22.65 22.65 0 0 0 5.37 8.53c1.82 1.71 4 3 5.91 4.59a23.65 23.65 0 0 1 8 21.89c5.32 1.22 10.42-3.54 12-8.77s.67-10.81.59-16.27c0-2.42.34-5.27 2.47-6.43 1.77-1 4-.28 5.74.7s3.46 2.24 5.47 2.48c3 .34 5.74-1.77 7.42-4.25s2.64-5.38 4.24-7.92c2.09-3.35 5.2-5.92 8.25-8.42 3.49-2.88 6.88-6.07 10.59-8.65 2.23-1.55 4.89-2.27 7.08-3.83 6.58-4.71 8.63-13.35 8.63-20.91Z" fill="#585268"/><path d="M801.52 116.75s.56.13 1.53.4a3 3 0 0 0-1.53-.4Z" opacity=".1"/><g opacity=".1"><path d="M770.79 118.37c1.55-5.23.67-10.82.59-16.27 0-2.42.34-5.28 2.47-6.44 1.77-1 4-.28 5.74.7s3.46 2.25 5.47 2.48c3 .34 5.74-1.76 7.42-4.25s2.64-5.38 4.24-7.92c2.09-3.35 5.2-5.92 8.25-8.42 3.49-2.87 6.88-6.07 10.59-8.65 2.23-1.55 4.89-2.27 7.08-3.83 6.62-4.74 8.67-13.38 8.67-20.93a14 14 0 0 0-1.33-4.16 14.31 14.31 0 0 1 3.33 7.18c0 7.55-2 16.19-8.67 20.93-2.19 1.56-4.85 2.28-7.08 3.83-3.71 2.58-7.1 5.78-10.59 8.65-3.05 2.5-6.16 5.07-8.25 8.42-1.6 2.54-2.55 5.44-4.24 7.92s-4.44 4.59-7.42 4.25c-2-.23-3.7-1.51-5.47-2.48s-4-1.66-5.74-.7c-2.13 1.16-2.51 4-2.47 6.44.08 5.45 1 11-.59 16.27s-6.66 10-12 8.76a20.9 20.9 0 0 0 .31-2.84c4.45-.38 8.36-4.45 9.69-8.94ZM744.92 100.65c1.82 1.71 4 3 5.91 4.59a22.8 22.8 0 0 1 5.21 6.31 22.33 22.33 0 0 0-3.21-3.31c-1.92-1.59-4.09-2.88-5.91-4.59a19.52 19.52 0 0 1-3.64-4.78 18.4 18.4 0 0 0 1.64 1.78Z"/></g><path d="M800.16 457.61c.73 2.17 1.77 4.29 1.91 6.58.24 3.89-2.14 7.52-2.31 11.42-.2 4.54 2.56 8.61 5.2 12.3-3.13 0-6.55-1.08-8.14-3.77a12.29 12.29 0 0 1-1.17-3.29c-2.83-11.29-5.58-23.64-.66-34.18a15.11 15.11 0 0 1 3.25-4.88c.83 5.32.13 10.55 1.92 15.82ZM878.38 377.93l8.31-11.21c2-2.71 4.07-5.53 4.79-8.82.78-3.61-.13-7.35-.25-11v-1.25a6.48 6.48 0 0 0-.38-.7c-1.06-1.74-2.23-5.21-3.46-9.85a12 12 0 0 0-2.76 4.25c-3.87 9.44-.29 20.52-3.49 30.2-.92 2.78-2.42 5.44-2.76 8.38ZM857.22 717.27a35.42 35.42 0 0 1-28.73 5.69M788.37 718.92a21.06 21.06 0 0 1-30.67-2M832.25 568.17a18.93 18.93 0 0 0 20.76-9.18M784.85 593.44a27.67 27.67 0 0 1-17.85-4.9M817.2 653.86c5.33 2.17 10.08 5.54 15.27 8s11.2 4.08 16.7 2.36" opacity=".1"/><ellipse cx="529.34" cy="644.14" rx="85.12" ry="24.55" fill="#5f5d7e"/><ellipse cx="529.34" cy="636.23" rx="17.03" ry="4.91" opacity=".1"/><path fill="#5f5d7e" d="M519.87 506.73h17.5v129.5h-17.5z"/><path d="M537.37 513.14v15c-3.5-1.08-11.49-5.63-17.5-9.21v-12.2h3.65Z" opacity=".1"/><path d="M496.14 450.35s57.78-14.87 72.16-26 70.85 41.25 63.39 61-34.62 34.08-34.62 34.08-75.12 12.22-87.9-13.27-13.03-55.81-13.03-55.81Z" fill="#474157"/><path d="M496.14 450.35s57.78-14.87 72.16-26 70.85 41.25 63.39 61-34.62 34.08-34.62 34.08-75.12 12.22-87.9-13.27-13.03-55.81-13.03-55.81Z" opacity=".1"/><path d="M491.14 444.35s57.78-14.87 72.16-26 70.85 41.25 63.39 61-34.62 34.08-34.62 34.08-75.12 12.22-87.9-13.27-13.03-55.81-13.03-55.81Z" fill="#474157"/><path d="M609.9 342.44c-.22 0-.43-.05-.64-.09a1.33 1.33 0 0 1 .64.09Z" opacity=".1"/><path d="M438.72 400.07c-5.77-1.41-21.68-2.71-29.25 22.68a112.32 112.32 0 0 1-6.71 17.17c-7.27 14.91-16.64 45.56 24.61 52.31l99 22.5s53 6.5 56.5 4 3-8 3-8-58.5 0-70-18-12-42.5-12-42.5 1.44-37.83-59-48.82c-2.04-.37-4.1-.84-6.15-1.34Z" fill="#474157"/><path d="M438.72 400.24c-5.77-1.41-21.68-2.71-29.25 22.68a112.84 112.84 0 0 1-6.71 17.18c-7.27 14.9-16.64 45.56 24.61 52.31l99 22.5s53 6.5 56.5 4 3-8 3-8-58.5 0-70-18-12-42.5-12-42.5 1.44-37.83-59-48.82c-2.04-.38-4.1-.85-6.15-1.35Z" opacity=".1"/><path d="M646.25 374.2a15.3 15.3 0 0 0-15.45-12.93c-12.71.24-49 1.78-71.12 11.56-4.86 2.15-9.73 4.24-14.73 6-4.52 1.61-9.91 4.18-12.58 7.87s-65.5 52 25 98.5c0 0 48.5 13.81 67.5-18.59 0 0 13.5-34.81 12.5-46.86s9-44.55 9-44.55-.02-.34-.12-1Z" fill="#474157"/><path d="M646.25 382.96c-1.14-7-7.8-12.06-15.45-11.93-14.24.24-58.07 2-78.43 14.27 0 0-15.5 9.23-20 9.23s-65.5 48 25 90.93c0 0 48.5 12.74 67.5-17.17 0 0 13.5-32.13 12.5-43.25s9-41.13 9-41.13-.02-.35-.12-.95Z" opacity=".1"/><path fill="#5f5d7e" d="M581.87 485.23h16v34.07h-16z"/></symbol></svg>